<svg width="769" height="620" viewBox="0 0 769 620" fill="none" xmlns="http://www.w3.org/2000/svg">
<path d="M768.365 546.699H0V547.105H768.365V546.699Z" fill="#EBEBEB"/>
<path d="M364.205 474.308H67.4777C65.1532 474.303 62.9253 473.325 61.283 471.587C59.6407 469.85 58.7184 467.495 58.7184 465.04V24.4759C58.7386 22.0348 59.6699 19.7007 61.31 17.9806C62.9501 16.2604 65.1665 15.2932 67.4777 15.2891H364.205C366.532 15.2891 368.764 16.2655 370.41 18.0036C372.055 19.7417 372.98 22.0991 372.98 24.5571V465.04C372.98 467.498 372.055 469.855 370.41 471.593C368.764 473.331 366.532 474.308 364.205 474.308ZM67.4777 15.6137C65.2551 15.618 63.1249 16.5536 61.5547 18.2151C59.9845 19.8766 59.1026 22.1283 59.1026 24.4759V465.04C59.1026 467.387 59.9845 469.639 61.5547 471.301C63.1249 472.962 65.2551 473.898 67.4777 473.902H364.205C366.429 473.898 368.561 472.963 370.134 471.302C371.706 469.64 372.591 467.389 372.596 465.04V24.4759C372.591 22.1268 371.706 19.8752 370.134 18.2141C368.561 16.5531 366.429 15.618 364.205 15.6137H67.4777Z" fill="#EBEBEB"/>
<path d="M696.615 474.308H399.873C397.547 474.303 395.317 473.326 393.672 471.588C392.028 469.851 391.102 467.496 391.098 465.04V24.4759C391.122 22.0333 392.057 19.6992 393.699 17.9795C395.342 16.2599 397.56 15.2932 399.873 15.2891H696.615C698.924 15.2975 701.136 16.2666 702.773 17.9862C704.41 19.7059 705.339 22.0376 705.359 24.4759V465.04C705.359 467.492 704.439 469.845 702.8 471.582C701.161 473.319 698.937 474.299 696.615 474.308ZM399.873 15.6137C397.649 15.618 395.517 16.5531 393.944 18.2141C392.371 19.8752 391.486 22.1268 391.482 24.4759V465.04C391.486 467.389 392.371 469.64 393.944 471.302C395.517 472.963 397.649 473.898 399.873 473.902H696.615C698.839 473.898 700.971 472.963 702.544 471.302C704.116 469.64 705.002 467.389 705.006 465.04V24.4759C705.002 22.1268 704.116 19.8752 702.544 18.2141C700.971 16.5531 698.839 15.618 696.615 15.6137H399.873Z" fill="#EBEBEB"/>
<path d="M691.375 572.816H651.42V573.222H691.375V572.816Z" fill="#EBEBEB"/>
<path d="M547.122 577.23H477.923V577.636H547.122V577.23Z" fill="#EBEBEB"/>
<path d="M649.883 557.754H556.465V558.16H649.883V557.754Z" fill="#EBEBEB"/>
<path d="M110.168 560.48H80.6168V560.886H110.168V560.48Z" fill="#EBEBEB"/>
<path d="M208.826 560.48H123.86V560.886H208.826V560.48Z" fill="#EBEBEB"/>
<path d="M375.177 567.328H260.737V567.734H375.177V567.328Z" fill="#EBEBEB"/>
<path d="M280.161 174.273H123.86V546.699H280.161V174.273Z" fill="#F5F5F5"/>
<path d="M265.47 187.34H138.521V533.617H265.47V187.34Z" fill="#E6E6E6"/>
<path d="M256.757 203.57H147.265V211.491H256.757V203.57Z" fill="#FAFAFA"/>
<path d="M256.757 221.57H147.265V229.491H256.757V221.57Z" fill="#FAFAFA"/>
<path d="M256.757 239.555H147.265V247.476H256.757V239.555Z" fill="#FAFAFA"/>
<path d="M256.757 257.555H147.265V265.476H256.757V257.555Z" fill="#FAFAFA"/>
<path d="M256.757 275.555H147.265V283.476H256.757V275.555Z" fill="#FAFAFA"/>
<path d="M256.757 293.539H147.265V301.46H256.757V293.539Z" fill="#FAFAFA"/>
<path d="M256.757 311.543H147.265V319.464H256.757V311.543Z" fill="#FAFAFA"/>
<path d="M256.757 329.523H147.265V337.444H256.757V329.523Z" fill="#FAFAFA"/>
<path d="M256.757 347.527H147.265V355.448H256.757V347.527Z" fill="#FAFAFA"/>
<path d="M256.757 365.527H147.265V373.448H256.757V365.527Z" fill="#FAFAFA"/>
<path d="M256.757 383.512H147.265V391.433H256.757V383.512Z" fill="#FAFAFA"/>
<path d="M256.757 401.512H147.265V409.433H256.757V401.512Z" fill="#FAFAFA"/>
<path d="M256.757 419.496H147.265V427.417H256.757V419.496Z" fill="#FAFAFA"/>
<path d="M256.757 437.496H147.265V445.417H256.757V437.496Z" fill="#FAFAFA"/>
<path d="M256.757 455.496H147.265V463.417H256.757V455.496Z" fill="#FAFAFA"/>
<path d="M256.757 473.48H147.265V481.401H256.757V473.48Z" fill="#FAFAFA"/>
<path d="M256.757 491.48H147.265V499.401H256.757V491.48Z" fill="#FAFAFA"/>
<path d="M256.757 509.465H147.265V517.386H256.757V509.465Z" fill="#FAFAFA"/>
<path d="M80.6168 546.68H123.86L123.86 174.255H80.6168L80.6168 546.68Z" fill="#E6E6E6"/>
<path d="M258.678 167.863H136.016V174.275H258.678V167.863Z" fill="#F0F0F0"/>
<path d="M102.085 174.273H136.016V167.862H102.085V174.273Z" fill="#E0E0E0"/>
<path d="M116.1 201.672C118.689 201.672 120.787 196.265 120.787 189.596C120.787 182.926 118.689 177.52 116.1 177.52C113.511 177.52 111.413 182.926 111.413 189.596C111.413 196.265 113.511 201.672 116.1 201.672Z" fill="#F5F5F5"/>
<path d="M82.1534 189.596C82.1534 196.267 83.5672 201.672 85.3191 201.672C87.071 201.672 88.4848 196.267 88.4848 189.596C88.4848 182.925 87.071 177.602 85.3191 177.602C83.5672 177.602 82.1534 182.925 82.1534 189.596Z" fill="#F5F5F5"/>
<path d="M116.1 543.437C118.689 543.437 120.787 538.031 120.787 531.361C120.787 524.692 118.689 519.285 116.1 519.285C113.511 519.285 111.413 524.692 111.413 531.361C111.413 538.031 113.511 543.437 116.1 543.437Z" fill="#F5F5F5"/>
<path d="M82.1534 531.443C82.1534 538.13 83.5672 543.535 85.3191 543.535C87.071 543.535 88.4848 538.13 88.4848 531.443C88.4848 524.756 87.071 519.367 85.3191 519.367C83.5672 519.367 82.1534 524.691 82.1534 531.443Z" fill="#F5F5F5"/>
<path d="M571.141 257.328H449.709V546.682H571.141V257.328Z" fill="#F5F5F5"/>
<path d="M559.739 267.488H461.096V536.537H559.739V267.488Z" fill="#E6E6E6"/>
<path d="M552.962 280.102H467.888V286.253H552.962V280.102Z" fill="#FAFAFA"/>
<path d="M552.962 294.094H467.888V300.245H552.962V294.094Z" fill="#FAFAFA"/>
<path d="M552.962 308.066H467.888V314.218H552.962V308.066Z" fill="#FAFAFA"/>
<path d="M552.962 322.043H467.888V328.195H552.962V322.043Z" fill="#FAFAFA"/>
<path d="M552.962 336.035H467.888V342.187H552.962V336.035Z" fill="#FAFAFA"/>
<path d="M552.962 350.008H467.888V356.159H552.962V350.008Z" fill="#FAFAFA"/>
<path d="M552.962 363.984H467.888V370.136H552.962V363.984Z" fill="#FAFAFA"/>
<path d="M552.962 377.977H467.888V384.128H552.962V377.977Z" fill="#FAFAFA"/>
<path d="M552.962 391.953H467.888V398.105H552.962V391.953Z" fill="#FAFAFA"/>
<path d="M552.962 405.926H467.888V412.077H552.962V405.926Z" fill="#FAFAFA"/>
<path d="M552.962 419.918H467.888V426.07H552.962V419.918Z" fill="#FAFAFA"/>
<path d="M552.962 433.895H467.888V440.046H552.962V433.895Z" fill="#FAFAFA"/>
<path d="M552.962 447.867H467.888V454.019H552.962V447.867Z" fill="#FAFAFA"/>
<path d="M552.962 461.859H467.888V468.011H552.962V461.859Z" fill="#FAFAFA"/>
<path d="M552.962 475.836H467.888V481.988H552.962V475.836Z" fill="#FAFAFA"/>
<path d="M552.962 489.805H467.888V495.956H552.962V489.805Z" fill="#FAFAFA"/>
<path d="M552.962 503.801H467.888V509.952H552.962V503.801Z" fill="#FAFAFA"/>
<path d="M552.962 517.777H467.888V523.929H552.962V517.777Z" fill="#FAFAFA"/>
<path d="M416.116 546.699H449.709L449.709 257.345H416.116L416.116 546.699Z" fill="#E6E6E6"/>
<path d="M554.468 252.363H459.16V257.346H554.468V252.363Z" fill="#F0F0F0"/>
<path d="M432.774 257.328H459.144V252.345H432.774V257.328Z" fill="#E0E0E0"/>
<path d="M440.043 269.241C440.043 274.435 441.672 278.639 443.669 278.639C445.667 278.639 447.311 274.435 447.311 269.241C447.311 264.047 445.683 259.859 443.669 259.859C441.656 259.859 440.043 264.063 440.043 269.241Z" fill="#F5F5F5"/>
<path d="M417.299 269.241C417.299 274.435 418.406 278.639 419.758 278.639C421.11 278.639 422.232 274.435 422.232 269.241C422.232 264.047 421.126 259.859 419.758 259.859C418.39 259.859 417.299 264.063 417.299 269.241Z" fill="#F5F5F5"/>
<path d="M440.043 534.784C440.043 539.978 441.672 544.166 443.669 544.166C445.667 544.166 447.311 539.978 447.311 534.784C447.311 529.59 445.683 525.402 443.669 525.402C441.656 525.402 440.043 529.606 440.043 534.784Z" fill="#F5F5F5"/>
<path d="M417.299 534.784C417.299 539.978 418.406 544.166 419.758 544.166C421.11 544.166 422.232 539.978 422.232 534.784C422.232 529.59 421.126 525.402 419.758 525.402C418.39 525.402 417.299 529.606 417.299 534.784Z" fill="#F5F5F5"/>
<path d="M443.669 270.118H372.027C367.279 270.114 362.726 268.12 359.367 264.576C356.008 261.031 354.117 256.224 354.109 251.209V225.644C354.105 221.06 352.38 216.664 349.312 213.42C346.244 210.177 342.083 208.35 337.743 208.342H280.146V206.719H337.743C342.491 206.727 347.042 208.725 350.398 212.272C353.754 215.82 355.641 220.629 355.646 225.644V251.144C355.642 253.419 356.062 255.673 356.883 257.777C357.705 259.881 358.91 261.794 360.432 263.405C361.953 265.016 363.76 266.295 365.75 267.169C367.739 268.042 369.873 268.493 372.027 268.495H443.669V270.118Z" fill="#E0E0E0"/>
<path d="M419.758 535.595H398.013C393.268 535.586 388.719 533.591 385.363 530.047C382.007 526.502 380.118 521.698 380.11 516.685V368.105C380.102 363.52 378.373 359.126 375.302 355.885C372.232 352.645 368.07 350.823 363.729 350.818H280.146V349.195H363.79C368.539 349.2 373.091 351.193 376.45 354.737C379.809 358.282 381.7 363.089 381.709 368.105V516.685C381.717 521.256 383.435 525.638 386.489 528.876C389.543 532.114 393.686 533.946 398.013 533.971H419.696L419.758 535.595Z" fill="#E0E0E0"/>
<path d="M663.314 86.2344H582.19V94.9992H663.314V86.2344Z" fill="#F0F0F0"/>
<path d="M559.739 95.0156H582.19V86.2508H559.739V95.0156Z" fill="#E0E0E0"/>
<path d="M663.314 64.7773H582.19V73.5422H663.314V64.7773Z" fill="#F0F0F0"/>
<path d="M559.739 73.5273H582.19V64.7625H559.739V73.5273Z" fill="#E0E0E0"/>
<path d="M663.314 43.3047H582.19V52.0695H663.314V43.3047Z" fill="#F0F0F0"/>
<path d="M559.739 52.0703H582.19V43.3055H559.739V52.0703Z" fill="#E0E0E0"/>
<path d="M663.314 21.832H582.19V30.5969H663.314V21.832Z" fill="#F0F0F0"/>
<path d="M559.739 30.5938L582.19 30.5938V21.8289L559.739 21.8289V30.5938Z" fill="#E0E0E0"/>
<g opacity="0.4">
<path opacity="0.4" d="M655.231 0.015625H586.77V86.2521H655.231V0.015625Z" fill="#F0F0F0"/>
<path opacity="0.4" d="M567.822 86.2383H586.77V0.00185394H567.822V86.2383Z" fill="#E0E0E0"/>
</g>
<path d="M453.919 228.793H394.678V235.188H453.919V228.793Z" fill="#F0F0F0"/>
<path d="M378.297 235.188H394.679V228.792H378.297V235.188Z" fill="#E0E0E0"/>
<path d="M453.919 213.113H394.678V219.508H453.919V213.113Z" fill="#F0F0F0"/>
<path d="M378.297 219.512H394.679V213.117H378.297V219.512Z" fill="#E0E0E0"/>
<path d="M453.919 197.438H394.678V203.833H453.919V197.438Z" fill="#F0F0F0"/>
<path d="M378.297 203.848H394.679V197.453H378.297V203.848Z" fill="#E0E0E0"/>
<path d="M453.919 181.758H394.678V188.153H453.919V181.758Z" fill="#F0F0F0"/>
<path d="M378.297 188.164H394.679V181.769H378.297V188.164Z" fill="#E0E0E0"/>
<g opacity="0.4">
<path opacity="0.4" d="M448.018 165.832H398.028V228.793H448.018V165.832Z" fill="#F0F0F0"/>
<path opacity="0.4" d="M384.198 228.793H398.028V165.832H384.198V228.793Z" fill="#E0E0E0"/>
</g>
<path d="M726.535 431.699H650.19V439.945H726.535V431.699Z" fill="#F0F0F0"/>
<path d="M629.076 439.945H650.19V431.7H629.076V439.945Z" fill="#E0E0E0"/>
<path d="M726.535 411.492H650.19V419.738H726.535V411.492Z" fill="#F0F0F0"/>
<path d="M629.076 419.738H650.19V411.493H629.076V419.738Z" fill="#E0E0E0"/>
<path d="M726.535 391.285H650.19V399.531H726.535V391.285Z" fill="#F0F0F0"/>
<path d="M629.076 399.547H650.19V391.301H629.076V399.547Z" fill="#E0E0E0"/>
<path d="M726.535 371.094H650.19V379.339H726.535V371.094Z" fill="#F0F0F0"/>
<path d="M629.076 379.324H650.19V371.079H629.076V379.324Z" fill="#E0E0E0"/>
<g opacity="0.4">
<path opacity="0.4" d="M718.928 350.543H654.493V431.699H718.928V350.543Z" fill="#F0F0F0"/>
<path opacity="0.4" d="M636.683 431.699H654.509V350.543H636.683V431.699Z" fill="#E0E0E0"/>
</g>
<path d="M384.183 619.997C548.74 619.997 682.139 611.771 682.139 601.624C682.139 591.476 548.74 583.25 384.183 583.25C219.626 583.25 86.226 591.476 86.226 601.624C86.226 611.771 219.626 619.997 384.183 619.997Z" fill="#FFF2E5"/>
<path d="M656.752 113.129H489.418V282.648H656.752V113.129Z" fill="#0ACE5F"/>
<path opacity="0.4" d="M656.752 113.129H489.418V282.648H656.752V113.129Z" fill="white"/>
<path opacity="0.7" d="M656.737 113.129H542.681V282.648H656.737V113.129Z" fill="white"/>
<path d="M651.036 121.781H548.382V142.768H651.036V121.781Z" fill="#0ACE5F"/>
<path d="M651.036 148.023H548.382V169.01H651.036V148.023Z" fill="#0ACE5F"/>
<path d="M651.036 174.273H548.382V195.26H651.036V174.273Z" fill="#0ACE5F"/>
<path d="M651.036 200.504H548.382V221.491H651.036V200.504Z" fill="#0ACE5F"/>
<path d="M651.036 226.746H548.382V247.733H651.036V226.746Z" fill="#0ACE5F"/>
<path d="M651.036 252.992H548.382V273.979H651.036V252.992Z" fill="#0ACE5F"/>
<path d="M536.719 121.781H495.396V142.768H536.719V121.781Z" fill="#0ACE5F"/>
<path d="M536.719 148.023H495.396V169.01H536.719V148.023Z" fill="#0ACE5F"/>
<path d="M536.719 174.273H495.396V195.26H536.719V174.273Z" fill="#0ACE5F"/>
<path d="M536.719 200.504H495.396V221.491H536.719V200.504Z" fill="#0ACE5F"/>
<path d="M536.719 226.746H495.396V247.733H536.719V226.746Z" fill="#0ACE5F"/>
<path d="M536.719 252.992H495.396V273.979H536.719V252.992Z" fill="#0ACE5F"/>
<path opacity="0.4" d="M518.6 125.984H499.207V138.58H518.6V125.984Z" fill="#263238"/>
<path opacity="0.4" d="M518.6 152.215H499.207V164.81H518.6V152.215Z" fill="#263238"/>
<path opacity="0.4" d="M518.6 178.457H499.207V191.052H518.6V178.457Z" fill="#263238"/>
<path opacity="0.4" d="M518.6 204.707H499.207V217.302H518.6V204.707Z" fill="#263238"/>
<path opacity="0.4" d="M518.6 230.953H499.207V243.549H518.6V230.953Z" fill="#263238"/>
<path opacity="0.4" d="M518.6 257.199H499.207V269.795H518.6V257.199Z" fill="#263238"/>
<path opacity="0.7" d="M646.011 124.508H643.614V140.025H646.011V124.508Z" fill="white"/>
<path opacity="0.7" d="M641.4 124.508H639.003V140.025H641.4V124.508Z" fill="white"/>
<path opacity="0.7" d="M636.79 124.508H634.393V140.025H636.79V124.508Z" fill="white"/>
<path opacity="0.7" d="M632.18 124.508H629.783V140.025H632.18V124.508Z" fill="white"/>
<path opacity="0.7" d="M627.57 124.508H625.173V140.025H627.57V124.508Z" fill="white"/>
<path opacity="0.7" d="M646.011 150.754H643.614V166.271H646.011V150.754Z" fill="white"/>
<path opacity="0.7" d="M641.4 150.754H639.003V166.271H641.4V150.754Z" fill="white"/>
<path opacity="0.7" d="M636.79 150.754H634.393V166.271H636.79V150.754Z" fill="white"/>
<path opacity="0.7" d="M632.18 150.754H629.783V166.271H632.18V150.754Z" fill="white"/>
<path opacity="0.7" d="M627.57 150.754H625.173V166.271H627.57V150.754Z" fill="white"/>
<path opacity="0.7" d="M646.011 176.996H643.614V192.513H646.011V176.996Z" fill="white"/>
<path opacity="0.7" d="M641.4 176.996H639.003V192.513H641.4V176.996Z" fill="white"/>
<path opacity="0.7" d="M636.79 176.996H634.393V192.513H636.79V176.996Z" fill="white"/>
<path opacity="0.7" d="M632.18 176.996H629.783V192.513H632.18V176.996Z" fill="white"/>
<path opacity="0.7" d="M627.57 176.996H625.173V192.513H627.57V176.996Z" fill="white"/>
<path opacity="0.7" d="M646.011 203.246H643.614V218.779H646.011V203.246Z" fill="white"/>
<path opacity="0.7" d="M641.4 203.246H639.003V218.779H641.4V203.246Z" fill="white"/>
<path opacity="0.7" d="M636.79 203.246H634.393V218.779H636.79V203.246Z" fill="white"/>
<path opacity="0.7" d="M632.18 203.246H629.783V218.779H632.18V203.246Z" fill="white"/>
<path opacity="0.7" d="M627.57 203.246H625.173V218.779H627.57V203.246Z" fill="white"/>
<path opacity="0.7" d="M646.011 229.492H643.614V245.025H646.011V229.492Z" fill="white"/>
<path opacity="0.7" d="M641.4 229.492H639.003V245.025H641.4V229.492Z" fill="white"/>
<path opacity="0.7" d="M636.79 229.492H634.393V245.025H636.79V229.492Z" fill="white"/>
<path opacity="0.7" d="M632.18 229.492H629.783V245.025H632.18V229.492Z" fill="white"/>
<path opacity="0.7" d="M627.57 229.492H625.173V245.025H627.57V229.492Z" fill="white"/>
<path opacity="0.7" d="M646.011 255.738H643.614V271.255H646.011V255.738Z" fill="white"/>
<path opacity="0.7" d="M641.4 255.738H639.003V271.255H641.4V255.738Z" fill="white"/>
<path opacity="0.7" d="M636.79 255.738H634.393V271.255H636.79V255.738Z" fill="white"/>
<path opacity="0.7" d="M632.18 255.738H629.783V271.255H632.18V255.738Z" fill="white"/>
<path opacity="0.7" d="M627.57 255.738H625.173V271.255H627.57V255.738Z" fill="white"/>
<path opacity="0.2" d="M586.17 263.495C586.17 262.984 586.314 262.485 586.582 262.061C586.851 261.637 587.232 261.306 587.679 261.111C588.125 260.915 588.616 260.864 589.09 260.964C589.564 261.063 590 261.309 590.341 261.67C590.683 262.031 590.916 262.491 591.01 262.991C591.104 263.492 591.056 264.011 590.871 264.482C590.686 264.954 590.373 265.357 589.971 265.641C589.569 265.924 589.097 266.076 588.614 266.076C587.966 266.076 587.344 265.804 586.886 265.32C586.428 264.836 586.17 264.179 586.17 263.495Z" fill="white"/>
<path opacity="0.2" d="M570.803 263.495C570.803 262.984 570.946 262.485 571.215 262.061C571.483 261.637 571.865 261.306 572.311 261.111C572.758 260.915 573.249 260.864 573.723 260.964C574.197 261.063 574.632 261.309 574.974 261.67C575.316 262.031 575.549 262.491 575.643 262.991C575.737 263.492 575.689 264.011 575.504 264.482C575.319 264.954 575.006 265.357 574.604 265.641C574.202 265.924 573.73 266.076 573.246 266.076C572.598 266.076 571.977 265.804 571.519 265.32C571.06 264.836 570.803 264.179 570.803 263.495Z" fill="white"/>
<path opacity="0.4" d="M555.436 263.495C555.436 262.984 555.579 262.485 555.848 262.061C556.116 261.637 556.498 261.306 556.944 261.111C557.391 260.915 557.882 260.864 558.356 260.964C558.83 261.063 559.265 261.309 559.607 261.67C559.949 262.031 560.181 262.491 560.276 262.991C560.37 263.492 560.322 264.011 560.137 264.482C559.952 264.954 559.638 265.357 559.237 265.641C558.835 265.924 558.362 266.076 557.879 266.076C557.231 266.076 556.61 265.804 556.151 265.32C555.693 264.836 555.436 264.179 555.436 263.495Z" fill="white"/>
<path opacity="0.4" d="M586.17 237.249C586.17 236.738 586.314 236.239 586.582 235.815C586.851 235.391 587.232 235.06 587.679 234.864C588.125 234.669 588.616 234.618 589.09 234.718C589.564 234.817 590 235.063 590.341 235.424C590.683 235.785 590.916 236.245 591.01 236.745C591.104 237.246 591.056 237.765 590.871 238.236C590.686 238.708 590.373 239.111 589.971 239.395C589.569 239.678 589.097 239.829 588.614 239.829C587.966 239.829 587.344 239.558 586.886 239.074C586.428 238.59 586.17 237.933 586.17 237.249Z" fill="white"/>
<path opacity="0.2" d="M570.803 237.249C570.803 236.738 570.946 236.239 571.215 235.815C571.483 235.391 571.865 235.06 572.311 234.864C572.758 234.669 573.249 234.618 573.723 234.718C574.197 234.817 574.632 235.063 574.974 235.424C575.316 235.785 575.549 236.245 575.643 236.745C575.737 237.246 575.689 237.765 575.504 238.236C575.319 238.708 575.006 239.111 574.604 239.395C574.202 239.678 573.73 239.829 573.246 239.829C572.598 239.829 571.977 239.558 571.519 239.074C571.06 238.59 570.803 237.933 570.803 237.249Z" fill="white"/>
<path opacity="0.4" d="M555.436 237.249C555.436 236.738 555.579 236.239 555.848 235.815C556.116 235.391 556.498 235.06 556.944 234.864C557.391 234.669 557.882 234.618 558.356 234.718C558.83 234.817 559.265 235.063 559.607 235.424C559.949 235.785 560.181 236.245 560.276 236.745C560.37 237.246 560.322 237.765 560.137 238.236C559.952 238.708 559.638 239.111 559.237 239.395C558.835 239.678 558.362 239.829 557.879 239.829C557.231 239.829 556.61 239.558 556.151 239.074C555.693 238.59 555.436 237.933 555.436 237.249Z" fill="white"/>
<path opacity="0.2" d="M586.17 211.003C586.17 210.492 586.314 209.993 586.582 209.569C586.851 209.144 587.232 208.814 587.679 208.618C588.125 208.423 588.616 208.372 589.09 208.471C589.564 208.571 590 208.817 590.341 209.178C590.683 209.539 590.916 209.999 591.01 210.499C591.104 211 591.056 211.519 590.871 211.99C590.686 212.462 590.373 212.865 589.971 213.148C589.569 213.432 589.097 213.583 588.614 213.583C587.966 213.583 587.344 213.311 586.886 212.828C586.428 212.344 586.17 211.687 586.17 211.003Z" fill="white"/>
<path opacity="0.4" d="M570.803 211.003C570.803 210.492 570.946 209.993 571.215 209.569C571.483 209.144 571.865 208.814 572.311 208.618C572.758 208.423 573.249 208.372 573.723 208.471C574.197 208.571 574.632 208.817 574.974 209.178C575.316 209.539 575.549 209.999 575.643 210.499C575.737 211 575.689 211.519 575.504 211.99C575.319 212.462 575.006 212.865 574.604 213.148C574.202 213.432 573.73 213.583 573.246 213.583C572.598 213.583 571.977 213.311 571.519 212.828C571.06 212.344 570.803 211.687 570.803 211.003Z" fill="white"/>
<path opacity="0.2" d="M555.436 211.003C555.436 210.492 555.579 209.993 555.848 209.569C556.116 209.144 556.498 208.814 556.944 208.618C557.391 208.423 557.882 208.372 558.356 208.471C558.83 208.571 559.265 208.817 559.607 209.178C559.949 209.539 560.181 209.999 560.276 210.499C560.37 211 560.322 211.519 560.137 211.99C559.952 212.462 559.638 212.865 559.237 213.148C558.835 213.432 558.362 213.583 557.879 213.583C557.231 213.583 556.61 213.311 556.151 212.828C555.693 212.344 555.436 211.687 555.436 211.003Z" fill="white"/>
<path opacity="0.4" d="M586.17 184.756C586.17 184.244 586.315 183.743 586.585 183.317C586.856 182.892 587.24 182.561 587.69 182.367C588.139 182.174 588.632 182.125 589.108 182.229C589.583 182.333 590.018 182.583 590.358 182.949C590.698 183.315 590.927 183.779 591.016 184.283C591.105 184.787 591.05 185.307 590.858 185.778C590.666 186.249 590.345 186.648 589.937 186.926C589.53 187.203 589.053 187.347 588.568 187.337C587.928 187.324 587.318 187.047 586.87 186.564C586.421 186.081 586.17 185.432 586.17 184.756Z" fill="white"/>
<path opacity="0.2" d="M570.803 184.756C570.803 184.244 570.948 183.743 571.218 183.317C571.489 182.892 571.873 182.561 572.322 182.367C572.771 182.174 573.265 182.125 573.74 182.229C574.215 182.333 574.651 182.583 574.99 182.949C575.33 183.315 575.559 183.779 575.648 184.283C575.737 184.787 575.682 185.307 575.49 185.778C575.298 186.249 574.978 186.648 574.57 186.926C574.162 187.203 573.685 187.347 573.2 187.337C572.56 187.324 571.951 187.047 571.502 186.564C571.054 186.081 570.803 185.432 570.803 184.756Z" fill="white"/>
<path opacity="0.2" d="M555.436 184.756C555.436 184.244 555.58 183.743 555.851 183.317C556.122 182.892 556.506 182.561 556.955 182.367C557.404 182.174 557.898 182.125 558.373 182.229C558.848 182.333 559.283 182.583 559.623 182.949C559.963 183.315 560.192 183.779 560.281 184.283C560.37 184.787 560.315 185.307 560.123 185.778C559.931 186.249 559.611 186.648 559.203 186.926C558.795 187.203 558.318 187.347 557.833 187.337C557.193 187.324 556.583 187.047 556.135 186.564C555.687 186.081 555.436 185.432 555.436 184.756Z" fill="white"/>
<path opacity="0.2" d="M586.17 158.51C586.17 158 586.314 157.501 586.582 157.077C586.851 156.652 587.232 156.321 587.679 156.126C588.125 155.931 588.616 155.88 589.09 155.979C589.564 156.079 590 156.325 590.341 156.686C590.683 157.047 590.916 157.506 591.01 158.007C591.104 158.508 591.056 159.026 590.871 159.498C590.686 159.97 590.373 160.373 589.971 160.656C589.569 160.94 589.097 161.091 588.614 161.091C587.966 161.091 587.344 160.819 586.886 160.335C586.428 159.851 586.17 159.195 586.17 158.51Z" fill="white"/>
<path opacity="0.4" d="M570.803 158.51C570.803 158 570.946 157.501 571.215 157.077C571.483 156.652 571.865 156.321 572.311 156.126C572.758 155.931 573.249 155.88 573.723 155.979C574.197 156.079 574.632 156.325 574.974 156.686C575.316 157.047 575.549 157.506 575.643 158.007C575.737 158.508 575.689 159.026 575.504 159.498C575.319 159.97 575.006 160.373 574.604 160.656C574.202 160.94 573.73 161.091 573.246 161.091C572.598 161.091 571.977 160.819 571.519 160.335C571.06 159.851 570.803 159.195 570.803 158.51Z" fill="white"/>
<path opacity="0.4" d="M555.436 158.51C555.436 158 555.579 157.501 555.848 157.077C556.116 156.652 556.498 156.321 556.944 156.126C557.391 155.931 557.882 155.88 558.356 155.979C558.83 156.079 559.265 156.325 559.607 156.686C559.949 157.047 560.181 157.506 560.276 158.007C560.37 158.508 560.322 159.026 560.137 159.498C559.952 159.97 559.638 160.373 559.237 160.656C558.835 160.94 558.362 161.091 557.879 161.091C557.231 161.091 556.61 160.819 556.151 160.335C555.693 159.851 555.436 159.195 555.436 158.51Z" fill="white"/>
<path opacity="0.4" d="M586.17 132.285C586.167 131.773 586.308 131.273 586.575 130.846C586.841 130.42 587.222 130.086 587.668 129.889C588.114 129.691 588.606 129.637 589.081 129.735C589.556 129.833 589.993 130.077 590.336 130.438C590.679 130.798 590.913 131.258 591.009 131.759C591.105 132.26 591.057 132.78 590.873 133.252C590.688 133.725 590.375 134.129 589.973 134.413C589.571 134.697 589.098 134.849 588.614 134.849C587.968 134.849 587.349 134.579 586.891 134.099C586.434 133.618 586.174 132.966 586.17 132.285Z" fill="white"/>
<path opacity="0.2" d="M570.803 132.285C570.8 131.773 570.941 131.273 571.207 130.846C571.474 130.42 571.854 130.086 572.301 129.889C572.747 129.691 573.239 129.637 573.714 129.735C574.189 129.833 574.625 130.077 574.969 130.438C575.312 130.798 575.546 131.258 575.642 131.759C575.737 132.26 575.69 132.78 575.505 133.252C575.321 133.725 575.008 134.129 574.606 134.413C574.203 134.697 573.73 134.849 573.246 134.849C572.601 134.849 571.982 134.579 571.524 134.099C571.066 133.618 570.807 132.966 570.803 132.285Z" fill="white"/>
<path opacity="0.4" d="M555.436 132.285C555.433 131.773 555.574 131.273 555.84 130.846C556.107 130.42 556.487 130.086 556.934 129.889C557.38 129.691 557.871 129.637 558.346 129.735C558.821 129.833 559.258 130.077 559.601 130.438C559.945 130.798 560.179 131.258 560.275 131.759C560.37 132.26 560.323 132.78 560.138 133.252C559.954 133.725 559.64 134.129 559.238 134.413C558.836 134.697 558.363 134.849 557.879 134.849C557.234 134.849 556.615 134.579 556.157 134.099C555.699 133.618 555.44 132.966 555.436 132.285Z" fill="white"/>
<path d="M348.285 432.09H180.95V601.609H348.285V432.09Z" fill="#0ACE5F"/>
<path opacity="0.4" d="M348.285 432.09H180.95V601.609H348.285V432.09Z" fill="white"/>
<path opacity="0.7" d="M348.269 432.09H234.213V601.609H348.269V432.09Z" fill="#FFF2E5"/>
<path d="M342.568 440.754H239.914V461.741H342.568V440.754Z" fill="#0ACE5F"/>
<path d="M342.568 467H239.914V487.987H342.568V467Z" fill="#0ACE5F"/>
<path d="M342.568 493.23H239.914V514.217H342.568V493.23Z" fill="#0ACE5F"/>
<path d="M342.568 519.477H239.914V540.464H342.568V519.477Z" fill="#0ACE5F"/>
<path d="M342.568 545.723H239.914V566.71H342.568V545.723Z" fill="#0ACE5F"/>
<path d="M342.568 571.969H239.914V592.956H342.568V571.969Z" fill="#0ACE5F"/>
<path d="M228.251 440.754H186.928V461.741H228.251V440.754Z" fill="#0ACE5F"/>
<path d="M228.251 467H186.928V487.987H228.251V467Z" fill="#0ACE5F"/>
<path d="M228.251 493.23H186.928V514.217H228.251V493.23Z" fill="#0ACE5F"/>
<path d="M228.251 519.477H186.928V540.464H228.251V519.477Z" fill="#0ACE5F"/>
<path d="M228.251 545.723H186.928V566.71H228.251V545.723Z" fill="#0ACE5F"/>
<path d="M228.251 571.969H186.928V592.956H228.251V571.969Z" fill="#0ACE5F"/>
<path opacity="0.4" d="M210.132 444.941H190.739V457.537H210.132V444.941Z" fill="#263238"/>
<path opacity="0.4" d="M210.132 471.188H190.739V483.783H210.132V471.188Z" fill="#263238"/>
<path opacity="0.4" d="M210.132 497.434H190.739V510.029H210.132V497.434Z" fill="#263238"/>
<path opacity="0.4" d="M210.132 523.684H190.739V536.279H210.132V523.684Z" fill="#263238"/>
<path opacity="0.4" d="M210.132 549.926H190.739V562.521H210.132V549.926Z" fill="#263238"/>
<path opacity="0.4" d="M210.132 576.172H190.739V588.767H210.132V576.172Z" fill="#263238"/>
<path opacity="0.7" d="M337.543 443.484H335.146V459.018H337.543V443.484Z" fill="white"/>
<path opacity="0.7" d="M332.932 443.484H330.535V459.018H332.932V443.484Z" fill="white"/>
<path opacity="0.7" d="M328.322 443.484H325.925V459.018H328.322V443.484Z" fill="white"/>
<path opacity="0.7" d="M323.712 443.484H321.315V459.018H323.712V443.484Z" fill="white"/>
<path opacity="0.7" d="M319.102 443.484H316.705V459.018H319.102V443.484Z" fill="white"/>
<path opacity="0.7" d="M337.543 469.73H335.146V485.248H337.543V469.73Z" fill="white"/>
<path opacity="0.7" d="M332.932 469.73H330.535V485.248H332.932V469.73Z" fill="white"/>
<path opacity="0.7" d="M328.322 469.73H325.925V485.248H328.322V469.73Z" fill="white"/>
<path opacity="0.7" d="M323.712 469.73H321.315V485.248H323.712V469.73Z" fill="white"/>
<path opacity="0.7" d="M319.102 469.73H316.705V485.248H319.102V469.73Z" fill="white"/>
<path opacity="0.7" d="M337.543 495.977H335.146V511.494H337.543V495.977Z" fill="white"/>
<path opacity="0.7" d="M332.932 495.977H330.535V511.494H332.932V495.977Z" fill="white"/>
<path opacity="0.7" d="M328.322 495.977H325.925V511.494H328.322V495.977Z" fill="white"/>
<path opacity="0.7" d="M323.712 495.977H321.315V511.494H323.712V495.977Z" fill="white"/>
<path opacity="0.7" d="M319.102 495.977H316.705V511.494H319.102V495.977Z" fill="white"/>
<path opacity="0.7" d="M337.543 522.223H335.146V537.756H337.543V522.223Z" fill="white"/>
<path opacity="0.7" d="M332.932 522.223H330.535V537.756H332.932V522.223Z" fill="white"/>
<path opacity="0.7" d="M328.322 522.223H325.925V537.756H328.322V522.223Z" fill="white"/>
<path opacity="0.7" d="M323.712 522.223H321.315V537.756H323.712V522.223Z" fill="white"/>
<path opacity="0.7" d="M319.102 522.223H316.705V537.756H319.102V522.223Z" fill="white"/>
<path opacity="0.7" d="M337.543 548.465H335.146V563.982H337.543V548.465Z" fill="white"/>
<path opacity="0.7" d="M332.932 548.465H330.535V563.982H332.932V548.465Z" fill="white"/>
<path opacity="0.7" d="M328.322 548.465H325.925V563.982H328.322V548.465Z" fill="white"/>
<path opacity="0.7" d="M323.712 548.465H321.315V563.982H323.712V548.465Z" fill="white"/>
<path opacity="0.7" d="M319.102 548.465H316.705V563.982H319.102V548.465Z" fill="white"/>
<path opacity="0.7" d="M337.543 574.695H335.146V590.229H337.543V574.695Z" fill="white"/>
<path opacity="0.7" d="M332.932 574.695H330.535V590.229H332.932V574.695Z" fill="white"/>
<path opacity="0.7" d="M328.322 574.695H325.925V590.229H328.322V574.695Z" fill="white"/>
<path opacity="0.7" d="M323.712 574.695H321.315V590.229H323.712V574.695Z" fill="white"/>
<path opacity="0.7" d="M319.102 574.695H316.705V590.229H319.102V574.695Z" fill="white"/>
<path opacity="0.2" d="M251.855 451.241C251.855 451.751 251.711 452.25 251.443 452.675C251.174 453.099 250.793 453.43 250.346 453.625C249.9 453.821 249.408 453.872 248.934 453.772C248.461 453.673 248.025 453.427 247.683 453.066C247.342 452.705 247.109 452.245 247.015 451.744C246.92 451.244 246.969 450.725 247.154 450.253C247.339 449.782 247.652 449.379 248.054 449.095C248.456 448.812 248.928 448.66 249.411 448.66C250.059 448.66 250.681 448.932 251.139 449.416C251.597 449.9 251.855 450.556 251.855 451.241Z" fill="white"/>
<path opacity="0.2" d="M267.222 451.241C267.222 451.751 267.079 452.25 266.81 452.675C266.542 453.099 266.16 453.43 265.714 453.625C265.267 453.821 264.776 453.872 264.302 453.772C263.828 453.673 263.393 453.427 263.051 453.066C262.709 452.705 262.477 452.245 262.382 451.744C262.288 451.244 262.336 450.725 262.521 450.253C262.706 449.782 263.019 449.379 263.421 449.095C263.823 448.812 264.295 448.66 264.779 448.66C265.427 448.66 266.048 448.932 266.506 449.416C266.965 449.9 267.222 450.556 267.222 451.241Z" fill="white"/>
<path opacity="0.4" d="M282.589 451.241C282.589 451.751 282.446 452.25 282.178 452.675C281.909 453.099 281.527 453.43 281.081 453.625C280.634 453.821 280.143 453.872 279.669 453.772C279.195 453.673 278.76 453.427 278.418 453.066C278.076 452.705 277.844 452.245 277.749 451.744C277.655 451.244 277.704 450.725 277.888 450.253C278.073 449.782 278.387 449.379 278.788 449.095C279.19 448.812 279.663 448.66 280.146 448.66C280.794 448.66 281.415 448.932 281.874 449.416C282.332 449.9 282.589 450.556 282.589 451.241Z" fill="white"/>
<path opacity="0.4" d="M251.855 477.487C251.855 477.997 251.711 478.496 251.443 478.921C251.174 479.345 250.793 479.676 250.346 479.871C249.9 480.067 249.408 480.118 248.934 480.018C248.461 479.919 248.025 479.673 247.683 479.312C247.342 478.951 247.109 478.491 247.015 477.99C246.92 477.49 246.969 476.971 247.154 476.499C247.339 476.028 247.652 475.625 248.054 475.341C248.456 475.058 248.928 474.906 249.411 474.906C250.059 474.906 250.681 475.178 251.139 475.662C251.597 476.146 251.855 476.803 251.855 477.487Z" fill="white"/>
<path opacity="0.2" d="M267.222 477.487C267.222 477.997 267.079 478.496 266.81 478.921C266.542 479.345 266.16 479.676 265.714 479.871C265.267 480.067 264.776 480.118 264.302 480.018C263.828 479.919 263.393 479.673 263.051 479.312C262.709 478.951 262.477 478.491 262.382 477.99C262.288 477.49 262.336 476.971 262.521 476.499C262.706 476.028 263.019 475.625 263.421 475.341C263.823 475.058 264.295 474.906 264.779 474.906C265.427 474.906 266.048 475.178 266.506 475.662C266.965 476.146 267.222 476.803 267.222 477.487Z" fill="white"/>
<path opacity="0.4" d="M282.589 477.487C282.589 477.997 282.446 478.496 282.178 478.921C281.909 479.345 281.527 479.676 281.081 479.871C280.634 480.067 280.143 480.118 279.669 480.018C279.195 479.919 278.76 479.673 278.418 479.312C278.076 478.951 277.844 478.491 277.749 477.99C277.655 477.49 277.704 476.971 277.888 476.499C278.073 476.028 278.387 475.625 278.788 475.341C279.19 475.058 279.663 474.906 280.146 474.906C280.794 474.906 281.415 475.178 281.874 475.662C282.332 476.146 282.589 476.803 282.589 477.487Z" fill="white"/>
<path opacity="0.2" d="M251.855 503.733C251.855 504.244 251.711 504.742 251.443 505.167C251.174 505.591 250.793 505.922 250.346 506.117C249.9 506.313 249.408 506.364 248.934 506.264C248.461 506.165 248.025 505.919 247.683 505.558C247.342 505.197 247.109 504.737 247.015 504.237C246.92 503.736 246.969 503.217 247.154 502.745C247.339 502.274 247.652 501.871 248.054 501.587C248.456 501.304 248.928 501.152 249.411 501.152C250.059 501.152 250.681 501.424 251.139 501.908C251.597 502.392 251.855 503.049 251.855 503.733Z" fill="white"/>
<path opacity="0.4" d="M267.222 503.733C267.222 504.244 267.079 504.742 266.81 505.167C266.542 505.591 266.16 505.922 265.714 506.117C265.267 506.313 264.776 506.364 264.302 506.264C263.828 506.165 263.393 505.919 263.051 505.558C262.709 505.197 262.477 504.737 262.382 504.237C262.288 503.736 262.336 503.217 262.521 502.745C262.706 502.274 263.019 501.871 263.421 501.587C263.823 501.304 264.295 501.152 264.779 501.152C265.427 501.152 266.048 501.424 266.506 501.908C266.965 502.392 267.222 503.049 267.222 503.733Z" fill="white"/>
<path opacity="0.2" d="M282.589 503.733C282.589 504.244 282.446 504.742 282.178 505.167C281.909 505.591 281.527 505.922 281.081 506.117C280.634 506.313 280.143 506.364 279.669 506.264C279.195 506.165 278.76 505.919 278.418 505.558C278.076 505.197 277.844 504.737 277.749 504.237C277.655 503.736 277.704 503.217 277.888 502.745C278.073 502.274 278.387 501.871 278.788 501.587C279.19 501.304 279.663 501.152 280.146 501.152C280.794 501.152 281.415 501.424 281.874 501.908C282.332 502.392 282.589 503.049 282.589 503.733Z" fill="white"/>
<path opacity="0.4" d="M251.855 529.979C251.855 530.49 251.711 530.989 251.443 531.413C251.174 531.837 250.793 532.168 250.346 532.363C249.9 532.559 249.408 532.61 248.934 532.51C248.461 532.411 248.025 532.165 247.683 531.804C247.342 531.443 247.109 530.983 247.015 530.483C246.92 529.982 246.969 529.463 247.154 528.992C247.339 528.52 247.652 528.117 248.054 527.833C248.456 527.55 248.928 527.398 249.411 527.398C250.059 527.398 250.681 527.67 251.139 528.154C251.597 528.638 251.855 529.295 251.855 529.979Z" fill="white"/>
<path opacity="0.2" d="M267.222 529.979C267.222 530.49 267.079 530.989 266.81 531.413C266.542 531.837 266.16 532.168 265.714 532.363C265.267 532.559 264.776 532.61 264.302 532.51C263.828 532.411 263.393 532.165 263.051 531.804C262.709 531.443 262.477 530.983 262.382 530.483C262.288 529.982 262.336 529.463 262.521 528.992C262.706 528.52 263.019 528.117 263.421 527.833C263.823 527.55 264.295 527.398 264.779 527.398C265.427 527.398 266.048 527.67 266.506 528.154C266.965 528.638 267.222 529.295 267.222 529.979Z" fill="white"/>
<path opacity="0.2" d="M282.589 529.979C282.589 530.49 282.446 530.989 282.178 531.413C281.909 531.837 281.527 532.168 281.081 532.363C280.634 532.559 280.143 532.61 279.669 532.51C279.195 532.411 278.76 532.165 278.418 531.804C278.076 531.443 277.844 530.983 277.749 530.483C277.655 529.982 277.704 529.463 277.888 528.992C278.073 528.52 278.387 528.117 278.788 527.833C279.19 527.55 279.663 527.398 280.146 527.398C280.794 527.398 281.415 527.67 281.874 528.154C282.332 528.638 282.589 529.295 282.589 529.979Z" fill="white"/>
<path opacity="0.2" d="M251.855 556.225C251.855 556.736 251.711 557.235 251.443 557.659C251.174 558.083 250.793 558.414 250.346 558.61C249.9 558.805 249.408 558.856 248.934 558.756C248.461 558.657 248.025 558.411 247.683 558.05C247.342 557.689 247.109 557.229 247.015 556.729C246.92 556.228 246.969 555.709 247.154 555.238C247.339 554.766 247.652 554.363 248.054 554.079C248.456 553.796 248.928 553.645 249.411 553.645C250.059 553.645 250.681 553.916 251.139 554.4C251.597 554.884 251.855 555.541 251.855 556.225Z" fill="white"/>
<path opacity="0.4" d="M267.222 556.225C267.222 556.736 267.079 557.235 266.81 557.659C266.542 558.083 266.16 558.414 265.714 558.61C265.267 558.805 264.776 558.856 264.302 558.756C263.828 558.657 263.393 558.411 263.051 558.05C262.709 557.689 262.477 557.229 262.382 556.729C262.288 556.228 262.336 555.709 262.521 555.238C262.706 554.766 263.019 554.363 263.421 554.079C263.823 553.796 264.295 553.645 264.779 553.645C265.427 553.645 266.048 553.916 266.506 554.4C266.965 554.884 267.222 555.541 267.222 556.225Z" fill="white"/>
<path opacity="0.4" d="M282.589 556.225C282.589 556.736 282.446 557.235 282.178 557.659C281.909 558.083 281.527 558.414 281.081 558.61C280.634 558.805 280.143 558.856 279.669 558.756C279.195 558.657 278.76 558.411 278.418 558.05C278.076 557.689 277.844 557.229 277.749 556.729C277.655 556.228 277.704 555.709 277.888 555.238C278.073 554.766 278.387 554.363 278.788 554.079C279.19 553.796 279.663 553.645 280.146 553.645C280.794 553.645 281.415 553.916 281.874 554.4C282.332 554.884 282.589 555.541 282.589 556.225Z" fill="white"/>
<path opacity="0.4" d="M251.855 582.471C251.855 582.982 251.711 583.481 251.443 583.905C251.174 584.33 250.793 584.66 250.346 584.856C249.9 585.051 249.408 585.102 248.934 585.003C248.461 584.903 248.025 584.657 247.683 584.296C247.342 583.935 247.109 583.475 247.015 582.975C246.92 582.474 246.969 581.955 247.154 581.484C247.339 581.012 247.652 580.609 248.054 580.326C248.456 580.042 248.928 579.891 249.411 579.891C250.059 579.891 250.681 580.163 251.139 580.647C251.597 581.13 251.855 581.787 251.855 582.471Z" fill="white"/>
<path opacity="0.2" d="M267.222 582.471C267.222 582.982 267.079 583.481 266.81 583.905C266.542 584.33 266.16 584.66 265.714 584.856C265.267 585.051 264.776 585.102 264.302 585.003C263.828 584.903 263.393 584.657 263.051 584.296C262.709 583.935 262.477 583.475 262.382 582.975C262.288 582.474 262.336 581.955 262.521 581.484C262.706 581.012 263.019 580.609 263.421 580.326C263.823 580.042 264.295 579.891 264.779 579.891C265.427 579.891 266.048 580.163 266.506 580.647C266.965 581.13 267.222 581.787 267.222 582.471Z" fill="white"/>
<path opacity="0.4" d="M282.589 582.471C282.589 582.982 282.446 583.481 282.178 583.905C281.909 584.33 281.527 584.66 281.081 584.856C280.634 585.051 280.143 585.102 279.669 585.003C279.195 584.903 278.76 584.657 278.418 584.296C278.076 583.935 277.844 583.475 277.749 582.975C277.655 582.474 277.704 581.955 277.888 581.484C278.073 581.012 278.387 580.609 278.788 580.326C279.19 580.042 279.663 579.891 280.146 579.891C280.794 579.891 281.415 580.163 281.874 580.647C282.332 581.13 282.589 581.787 282.589 582.471Z" fill="white"/>
<path d="M593.962 282.648H590.888V431.359H593.962V282.648Z" fill="#0ACE5F"/>
<path opacity="0.7" d="M503.018 518.453H485.807V515.207H503.018V518.453ZM467.366 518.453H448.925V515.207H467.366V518.453ZM430.484 518.453H412.044V515.207H430.484V518.453ZM393.603 518.453H375.162V515.207H393.603V518.453Z" fill="#0ACE5F"/>
<path d="M541.959 426.049L519.783 540.934C519.539 542.191 519.613 543.494 519.998 544.712C520.383 545.93 521.064 547.019 521.974 547.87C522.884 548.721 523.99 549.303 525.181 549.559C526.372 549.814 527.606 549.734 528.758 549.325L634.039 512.156C635.192 511.753 636.224 511.036 637.03 510.078C637.836 509.119 638.389 507.953 638.632 506.697C638.876 505.44 638.801 504.138 638.415 502.923C638.03 501.707 637.347 500.62 636.437 499.771L553.33 422.04C552.422 421.187 551.316 420.602 550.125 420.344C548.934 420.086 547.7 420.164 546.547 420.571C545.393 420.978 544.362 421.698 543.557 422.66C542.751 423.622 542.2 424.791 541.959 426.049Z" fill="#0ACE5F"/>
<path d="M532.831 531.033L550.303 440.544C550.408 440.039 550.635 439.571 550.962 439.186C551.29 438.801 551.707 438.512 552.171 438.349C552.636 438.185 553.133 438.152 553.614 438.252C554.095 438.352 554.543 438.583 554.913 438.921L620.363 500.129C620.734 500.475 621.012 500.919 621.168 501.415C621.325 501.911 621.355 502.442 621.255 502.954C621.156 503.466 620.93 503.941 620.6 504.332C620.271 504.722 619.85 505.014 619.379 505.177L536.473 534.393C536.009 534.554 535.514 534.584 535.036 534.482C534.558 534.379 534.114 534.147 533.746 533.808C533.379 533.469 533.102 533.035 532.941 532.549C532.78 532.062 532.742 531.54 532.831 531.033Z" fill="white"/>
<path d="M553.976 467.587L556.389 475.232L556.527 475.589L564.733 493.801C565.064 494.491 565.617 495.034 566.293 495.332C566.97 495.629 567.724 495.662 568.421 495.424L571.633 494.288C572.323 494.03 572.904 493.521 573.27 492.851C573.636 492.182 573.764 491.396 573.631 490.636L569.881 470.85L569.789 470.477L567.361 462.832C567.095 462.041 566.55 461.39 565.839 461.015C565.129 460.639 564.308 460.569 563.55 460.819L555.866 463.513C555.11 463.797 554.489 464.382 554.135 465.144C553.782 465.905 553.725 466.782 553.976 467.587Z" fill="#263238"/>
<path d="M578.364 502.987C578.703 504.065 578.733 505.225 578.448 506.321C578.164 507.416 577.578 508.398 576.765 509.143C575.953 509.887 574.949 510.36 573.882 510.502C572.815 510.644 571.731 510.448 570.769 509.94C569.807 509.432 569.009 508.634 568.476 507.647C567.944 506.66 567.7 505.528 567.776 504.395C567.852 503.262 568.244 502.178 568.903 501.28C569.563 500.382 570.459 499.711 571.479 499.351C572.157 499.11 572.874 499.012 573.587 499.065C574.301 499.117 574.998 499.318 575.638 499.656C576.278 499.994 576.848 500.462 577.316 501.034C577.784 501.605 578.14 502.269 578.364 502.987Z" fill="#263238"/>
<path d="M256.373 205.907C248.689 208.261 213.559 243.434 231.416 261.645C249.273 279.857 289.597 282.291 299.601 271.465C309.605 260.639 311.249 233.922 299.601 211.15C292.394 197.077 256.373 190.228 256.373 205.907Z" fill="#263238"/>
<path opacity="0.5" d="M256.373 205.907C248.689 208.261 213.559 243.434 231.416 261.645C249.273 279.857 289.597 282.291 299.601 271.465C309.605 260.639 311.249 233.922 299.601 211.15C292.394 197.077 256.373 190.228 256.373 205.907Z" fill="#0A1629"/>
<path d="M307.822 305.435V307.773C307.822 308.665 307.822 309.574 307.822 310.483C307.822 312.301 308.038 314.152 308.253 315.986C308.661 319.644 309.313 323.267 310.204 326.828C311.095 330.339 312.262 333.765 313.693 337.07C314.415 338.693 315.229 340.316 316.075 341.858C316.474 342.637 316.951 343.4 317.396 344.147C317.611 344.536 317.873 344.893 318.119 345.267L318.764 346.273C318.764 346.371 318.595 346.176 318.165 346.03C317.845 345.886 317.49 345.852 317.15 345.932C316.905 346.127 317.965 345.932 319.102 345.315C321.977 343.568 324.622 341.428 326.97 338.953C332.424 333.295 337.555 327.3 342.337 321.001L342.43 320.888C343.158 320.045 344.143 319.499 345.214 319.345C346.284 319.191 347.372 319.439 348.287 320.046C349.202 320.653 349.886 321.58 350.22 322.665C350.553 323.751 350.516 324.925 350.113 325.984C348.386 329.997 346.447 333.904 344.304 337.687C342.144 341.536 339.758 345.239 337.159 348.773C335.789 350.632 334.321 352.41 332.764 354.097C331.065 355.979 329.191 357.676 327.17 359.161C324.457 361.233 321.279 362.52 317.949 362.894C315.605 363.121 313.245 362.707 311.096 361.693C309.084 360.727 307.295 359.309 305.855 357.538L304.672 356.044C304.303 355.574 303.919 355.119 303.581 354.632C302.89 353.675 302.183 352.717 301.537 351.711C300.21 349.735 298.999 347.675 297.911 345.543C296.789 343.433 295.821 341.241 294.837 339.05C293.854 336.859 293.177 334.57 292.486 332.298C291.129 327.757 290.162 323.096 289.597 318.372C289.336 316.018 289.151 313.665 289.059 311.262C289.059 310.078 289.059 308.876 289.059 307.643V305.793V304.819L289.151 303.666C289.271 301.083 290.358 298.657 292.172 296.92C293.986 295.184 296.379 294.279 298.825 294.406C301.27 294.533 303.568 295.681 305.212 297.597C306.856 299.513 307.712 302.041 307.592 304.624L307.822 305.435Z" fill="#FF9A8D"/>
<path d="M366.187 315.564L362.976 314.201C360.839 313.302 358.453 313.331 356.337 314.282L344.304 319.638L341.231 325.514C345.672 332.997 353.432 329.15 353.432 329.15L360.993 329.734C361.701 329.791 362.411 329.636 363.039 329.286C363.667 328.935 364.188 328.404 364.543 327.754L368.078 321.261C368.35 320.765 368.517 320.213 368.568 319.642C368.618 319.071 368.552 318.495 368.372 317.954C368.193 317.413 367.905 316.919 367.527 316.507C367.15 316.094 366.693 315.773 366.187 315.564Z" fill="#FF9A8D"/>
<path d="M301.891 289.369C307.484 292.972 313.232 318.715 313.232 318.715L289.059 331.7C289.059 331.7 278.763 303.88 283.573 296.446C288.567 288.671 293.715 284.094 301.891 289.369Z" fill="#263238"/>
<path opacity="0.2" d="M306.562 308.732C307.67 313.2 307.638 317.899 306.47 322.35L289.059 331.683C289.059 331.683 283.05 315.451 282.359 304.463C288.537 298.052 302.736 297.24 306.562 308.732Z" fill="black"/>
<path d="M305.809 301.346C304.995 314.331 301.63 348.336 294.13 368.722C291.994 374.517 299.77 377.601 291.241 383.33L230.633 379.776C225.515 375.312 230.064 369.274 229.711 366.336C226.637 341.859 231.124 334.279 225.1 280.489C233.96 279.126 242.902 278.443 251.855 278.444C261.344 278.328 270.828 278.919 280.238 280.213C284.326 280.879 288.583 281.739 292.44 282.615C296.425 283.525 299.967 285.917 302.422 289.355C304.876 292.794 306.078 297.05 305.809 301.346Z" fill="#263238"/>
<path opacity="0.2" d="M227.513 306.281C230.889 309.003 233.536 312.605 235.196 316.734C237.809 323.632 230.986 336.91 228.496 341.357C228.589 332.592 228.681 322.448 227.513 306.281Z" fill="black"/>
<path d="M275.812 292.84C275.812 292.84 265.485 301.783 264.579 311.279C255.235 303.715 244.478 287.159 251.839 278.443C259.569 276.365 275.812 292.84 275.812 292.84Z" fill="#0C1B80"/>
<path d="M277.134 295.616C277.134 295.616 285.079 302.806 285.202 311.23C290.427 303.926 290.427 285.666 280.223 280.164C272.478 278.135 277.134 295.616 277.134 295.616Z" fill="#0C1B80"/>
<path d="M331.242 518.764L344.397 526.084L363.391 492.453L350.236 485.133L331.242 518.764Z" fill="#7F3E3B"/>
<path d="M346.287 522.433L338.603 506.056C338.472 505.762 338.243 505.529 337.959 505.403C337.675 505.277 337.357 505.267 337.067 505.374L323.912 509.951C323.584 510.079 323.286 510.278 323.036 510.536C322.786 510.794 322.591 511.105 322.463 511.449C322.335 511.792 322.278 512.16 322.295 512.529C322.311 512.898 322.402 513.258 322.56 513.587C325.341 519.252 326.955 521.833 330.336 529.039C332.426 533.47 335.238 543.144 338.112 549.263C340.985 555.383 346.886 552.704 346.195 549.88C343.121 537.236 345.303 530.776 346.564 525.322C346.791 524.355 346.693 523.333 346.287 522.433Z" fill="#263238"/>
<g opacity="0.2">
<path opacity="0.2" d="M350.221 485.148L363.391 492.469L352.049 512.53L339.894 503.425L350.221 485.148Z" fill="black"/>
</g>
<path d="M282.036 383.201C282.036 383.201 374.747 369.437 383.122 398.377C398.858 452.719 359.595 506.59 359.595 506.59L341.554 496.138C341.554 496.138 360.563 451.242 353.771 424.428C336.191 419.25 250.81 461.76 250.487 394.692C250.369 393.321 250.722 391.95 251.481 390.83C252.239 389.71 253.354 388.915 254.621 388.589L282.036 383.201Z" fill="#0C1B80"/>
<g opacity="0.3">
<path opacity="0.3" d="M282.036 383.201C282.036 383.201 374.747 369.437 383.122 398.377C398.858 452.719 359.595 506.59 359.595 506.59L341.554 496.138C341.554 496.138 360.563 451.242 353.771 424.428C336.191 419.25 250.81 461.76 250.487 394.692C250.369 393.321 250.722 391.95 251.481 390.83C252.239 389.71 253.354 388.915 254.621 388.589L282.036 383.201Z" fill="white"/>
</g>
<path d="M338.019 496.25L359.487 511.913L365.573 504.414L341.969 486.836L338.019 496.25Z" fill="#0C1B80"/>
<path d="M348.085 531.018L348.254 531.099C348.59 531.224 348.95 531.259 349.301 531.199C349.653 531.139 349.985 530.988 350.267 530.759C350.454 530.637 350.607 530.464 350.71 530.259C350.813 530.053 350.862 529.822 350.851 529.59C350.851 527.512 345.995 524.493 345.457 524.152C345.395 524.112 345.323 524.091 345.25 524.094C345.176 524.097 345.106 524.122 345.046 524.167C344.987 524.213 344.942 524.276 344.916 524.348C344.891 524.421 344.887 524.499 344.904 524.574C345.365 526.571 346.364 530.109 348.085 531.018ZM345.841 525.305C347.716 526.571 350.083 528.551 350.129 529.606C350.13 529.709 350.105 529.809 350.056 529.898C350.007 529.987 349.937 530.06 349.852 530.109C349.672 530.275 349.452 530.386 349.217 530.432C348.982 530.478 348.74 530.456 348.515 530.369C347.516 529.979 346.548 528.097 345.841 525.305Z" fill="#0C1B80"/>
<path d="M345.564 525.11C347.27 526.003 350.835 526.733 352.096 525.759C352.314 525.567 352.467 525.304 352.53 525.011C352.594 524.718 352.566 524.411 352.449 524.136C352.36 523.858 352.213 523.604 352.019 523.393C351.825 523.182 351.589 523.02 351.327 522.919C349.253 522.026 345.273 524.088 345.103 524.185C345.045 524.21 344.995 524.253 344.96 524.308C344.925 524.362 344.905 524.427 344.904 524.493C344.895 524.562 344.905 524.632 344.933 524.695C344.96 524.758 345.003 524.812 345.057 524.85C345.22 524.95 345.39 525.037 345.564 525.11ZM351.158 523.649C351.443 523.794 351.664 524.05 351.773 524.364C351.927 524.834 351.773 525.029 351.65 525.143C350.789 525.841 347.777 525.37 346.072 524.526C347.439 523.909 349.821 523.065 351.051 523.601L351.158 523.649Z" fill="#0C1B80"/>
<path d="M229.941 375.782L228.02 381.593C227.774 382.047 228.266 382.534 228.988 382.583L293.316 386.592C293.884 386.592 294.361 386.365 294.422 385.991L295.313 380.116C295.313 379.71 294.898 379.337 294.284 379.288L230.986 375.36C230.792 375.331 230.594 375.354 230.412 375.428C230.229 375.502 230.067 375.624 229.941 375.782Z" fill="#0C1B80"/>
<path d="M238.193 383.737L236.503 383.639C236.165 383.639 235.904 383.412 235.95 383.185L237.164 375.556C237.164 375.345 237.517 375.167 237.855 375.199L239.546 375.297C239.884 375.297 240.13 375.524 240.099 375.751L238.869 383.38C238.885 383.737 238.577 383.834 238.193 383.737Z" fill="#263238"/>
<path d="M288.521 386.98L286.815 386.883C286.477 386.883 286.231 386.655 286.278 386.428L287.492 378.8C287.551 378.669 287.649 378.563 287.772 378.498C287.894 378.434 288.033 378.414 288.168 378.442L289.874 378.54C290.212 378.54 290.457 378.767 290.411 378.994L289.197 386.623C289.167 386.785 288.905 386.98 288.521 386.98Z" fill="#263238"/>
<path d="M263.488 385.358L261.782 385.26C261.444 385.26 261.198 385.033 261.244 384.806L262.458 377.177C262.458 376.966 262.796 376.788 263.134 376.82L264.84 376.918C265.178 376.918 265.424 377.145 265.378 377.356L264.164 384.985C264.118 385.228 263.826 385.358 263.488 385.358Z" fill="#263238"/>
<path d="M256.327 248.449C257.587 258.188 258.586 272.358 251.839 278.396C260.18 284.14 267.52 291.361 273.538 299.74C273.798 300.094 274.134 300.376 274.519 300.564C274.904 300.751 275.326 300.839 275.749 300.818C276.172 300.797 276.585 300.669 276.951 300.445C277.318 300.221 277.629 299.906 277.856 299.529C285.663 286.544 280.207 280.165 280.207 280.165C274.26 278.769 274.983 273.186 277.134 265.8L256.327 248.449Z" fill="#FF9A8D"/>
<path d="M281.529 282.876C282.451 285.879 282.758 291.397 277.871 299.529C277.644 299.907 277.334 300.221 276.967 300.445C276.6 300.67 276.188 300.797 275.764 300.818C275.341 300.839 274.919 300.752 274.534 300.564C274.149 300.376 273.813 300.094 273.553 299.74C268.684 293.102 263.035 287.146 256.741 282.016C263.088 283.915 272.001 293.15 275.812 297.614C278.502 295.423 281.621 287.112 281.529 282.876Z" fill="white"/>
<path opacity="0.2" d="M262.074 255.965L273.63 262.831L277.195 265.801C276.058 268.857 275.535 272.129 275.659 275.41C268.113 273.137 259.462 262.522 262.074 255.965Z" fill="black"/>
<path d="M256.634 225.643C254.206 241.598 252.853 248.367 258.662 258.105C267.406 272.941 286.492 272.6 293.377 257.732C299.524 244.341 302.597 220.498 289.259 210.775C286.342 208.616 282.95 207.282 279.407 206.9C275.864 206.517 272.287 207.098 269.016 208.589C265.746 210.079 262.891 212.429 260.724 215.414C258.556 218.399 257.148 221.92 256.634 225.643Z" fill="#FF9A8D"/>
<path d="M299.278 226.293C297.357 217.641 298.31 203.033 282.851 203.845C268.467 204.592 259.707 202.319 259.8 211.035C243.91 219.248 242.896 227.754 254.068 235.788C262.55 237.93 264.717 227.672 263.749 219.232C269.896 223.014 281.59 217.609 287.077 217.771C294.161 218.047 301.199 234.944 299.278 226.293Z" fill="#263238"/>
<path opacity="0.5" d="M299.278 226.293C297.357 217.641 298.31 203.033 282.851 203.845C268.467 204.592 259.707 202.319 259.8 211.035C243.91 219.248 242.896 227.754 254.068 235.788C262.55 237.93 264.717 227.672 263.749 219.232C269.896 223.014 281.59 217.609 287.077 217.771C294.161 218.047 301.199 234.944 299.278 226.293Z" fill="#0A1629"/>
<path opacity="0.2" d="M275.613 234.621C273.402 234.639 271.233 233.992 269.358 232.754C271.516 233.061 273.622 233.689 275.613 234.621Z" fill="black"/>
<path opacity="0.2" d="M275.981 233.498C275.981 233.498 272.401 232.979 270.956 230.82C272.767 231.395 274.468 232.302 275.981 233.498Z" fill="black"/>
<path d="M279.516 235.448C279.255 236.731 279.669 237.915 280.469 238.11C281.268 238.305 282.128 237.412 282.389 236.13C282.651 234.848 282.251 233.663 281.452 233.468C280.653 233.273 279.792 234.166 279.516 235.448Z" fill="#263238"/>
<path d="M293.239 238.694C292.962 239.977 293.393 241.178 294.176 241.356C294.96 241.535 295.836 240.658 296.113 239.376C296.389 238.094 295.959 236.909 295.175 236.714C294.391 236.519 293.516 237.412 293.239 238.694Z" fill="#263238"/>
<path d="M294.806 236.699L297.88 236.504C297.88 236.504 295.897 238.565 294.806 236.699Z" fill="#263238"/>
<path d="M288.521 240.008C288.982 243.185 289.851 246.281 291.103 249.211C290.387 249.533 289.612 249.685 288.835 249.657C288.057 249.629 287.294 249.421 286.6 249.049L288.521 240.008Z" fill="#630F0F"/>
<path d="M280.407 249.88C279.803 249.758 279.192 249.682 278.578 249.652C278.495 249.671 278.421 249.718 278.367 249.788C278.314 249.857 278.285 249.944 278.285 250.034C278.285 250.123 278.314 250.21 278.367 250.28C278.421 250.349 278.495 250.397 278.578 250.415C280.127 250.46 281.643 250.886 283.007 251.662C284.371 252.437 285.543 253.539 286.431 254.879C286.479 254.965 286.558 255.029 286.649 255.056C286.741 255.084 286.839 255.072 286.923 255.025C287.003 254.968 287.062 254.883 287.087 254.784C287.113 254.686 287.103 254.581 287.061 254.489C286.298 253.292 285.317 252.267 284.174 251.476C283.032 250.684 281.751 250.141 280.407 249.88Z" fill="#263238"/>
<path d="M250.103 237.25C250.569 240.339 252.178 243.107 254.575 244.944C257.756 247.362 260.722 244.684 260.921 240.772C261.121 237.25 259.723 231.748 255.989 230.887C255.168 230.715 254.32 230.761 253.521 231.023C252.722 231.284 251.997 231.752 251.413 232.384C250.828 233.015 250.402 233.792 250.173 234.641C249.945 235.491 249.92 236.388 250.103 237.25Z" fill="#FF9A8D"/>
<path d="M278.609 224.575C278.735 224.67 278.885 224.721 279.039 224.721C279.194 224.721 279.344 224.67 279.47 224.575C282.251 222.546 286.354 224.088 286.385 224.104C286.566 224.175 286.767 224.167 286.943 224.082C287.119 223.997 287.255 223.841 287.322 223.65C287.39 223.458 287.382 223.246 287.301 223.06C287.221 222.875 287.074 222.731 286.892 222.66C286.692 222.66 282.036 220.825 278.64 223.293C278.483 223.41 278.376 223.588 278.341 223.789C278.307 223.989 278.348 224.195 278.456 224.364C278.491 224.446 278.543 224.518 278.609 224.575Z" fill="#263238"/>
<path d="M295.544 231.486C295.418 231.509 295.3 231.566 295.2 231.651C295.101 231.736 295.023 231.847 294.976 231.973C294.91 232.162 294.916 232.372 294.994 232.556C295.071 232.741 295.213 232.887 295.39 232.963C296.459 233.444 297.621 233.646 298.779 233.553C299.938 233.46 301.057 233.074 302.045 232.427C302.123 232.368 302.19 232.294 302.242 232.208C302.293 232.122 302.328 232.026 302.345 231.926C302.361 231.826 302.358 231.723 302.337 231.624C302.316 231.525 302.277 231.431 302.221 231.348C302.166 231.265 302.095 231.194 302.014 231.139C301.932 231.085 301.842 231.048 301.747 231.031C301.652 231.014 301.555 231.016 301.461 231.038C301.367 231.061 301.278 231.102 301.199 231.161C300.41 231.656 299.521 231.947 298.604 232.009C297.688 232.071 296.771 231.903 295.928 231.518C295.804 231.476 295.673 231.465 295.544 231.486Z" fill="#263238"/>
<path d="M351.942 571.889L366.111 567.166L356.86 529.25L342.676 533.973L351.942 571.889Z" fill="#FF9A8D"/>
<path d="M364.989 563.173L348.546 557.411C348.259 557.294 347.942 557.295 347.656 557.416C347.371 557.536 347.14 557.767 347.009 558.06L340.862 571.159C340.718 571.496 340.644 571.862 340.645 572.232C340.646 572.602 340.722 572.967 340.867 573.304C341.013 573.641 341.225 573.94 341.489 574.183C341.753 574.427 342.063 574.607 342.399 574.713C348.162 576.612 351.035 577.229 358.273 579.745C362.714 581.368 371.213 585.994 377.344 588.136C383.476 590.279 385.827 583.981 383.491 582.504C372.826 575.898 369.999 569.73 367.202 564.958C366.687 564.106 365.903 563.474 364.989 563.173Z" fill="#263238"/>
<g opacity="0.2">
<path opacity="0.2" d="M342.676 533.973L356.86 529.25L362.376 551.876L347.701 554.603L342.676 533.973Z" fill="#FFD8B2"/>
</g>
<path d="M260.922 381.757C260.922 381.757 346.579 387.957 348.131 418.18C351.02 474.908 363.652 542.089 363.652 542.089L343.936 548.273C343.936 548.273 318.242 480.102 313.631 436.002C297.742 426.507 219.891 459.569 227.574 384.89C227.711 383.499 228.349 382.218 229.356 381.311C230.363 380.404 231.662 379.942 232.984 380.02L260.922 381.757Z" fill="#0C1B80"/>
<g opacity="0.4">
<path opacity="0.4" d="M260.922 381.757C260.922 381.757 346.579 387.957 348.131 418.18C351.02 474.908 363.652 542.089 363.652 542.089L343.936 548.273C343.936 548.273 318.242 480.102 313.631 436.002C297.742 426.506 219.891 459.569 227.574 384.89C227.711 383.499 228.349 382.218 229.356 381.311C230.363 380.404 231.662 379.942 232.984 380.02L260.922 381.757Z" fill="white"/>
</g>
<path d="M341.554 550.948L367.202 545.868L366.433 536.016L338.004 541.356L341.554 550.948Z" fill="#0C1B80"/>
<path d="M372.027 567.863L372.196 567.782C372.519 567.626 372.798 567.384 373.006 567.079C373.213 566.775 373.342 566.418 373.379 566.045C373.433 565.816 373.426 565.576 373.361 565.351C373.296 565.125 373.175 564.922 373.011 564.763C371.566 563.367 366.172 564.844 365.558 565.006C365.488 565.026 365.425 565.067 365.379 565.125C365.332 565.183 365.303 565.255 365.296 565.331C365.287 565.406 365.298 565.482 365.328 565.551C365.358 565.62 365.406 565.679 365.465 565.72C367.156 566.808 370.214 568.512 372.027 567.863ZM366.618 565.526C368.785 565.006 371.766 564.6 372.519 565.331C372.59 565.403 372.642 565.493 372.669 565.593C372.696 565.693 372.697 565.798 372.673 565.899C372.652 566.15 372.57 566.39 372.436 566.598C372.301 566.806 372.118 566.973 371.904 567.084C370.936 567.555 369 566.954 366.618 565.526Z" fill="#0C1B80"/>
<path d="M366.28 565.606C368.093 564.94 371.12 562.814 371.305 561.142C371.338 560.838 371.273 560.531 371.12 560.271C370.966 560.012 370.733 559.815 370.46 559.714C370.217 559.601 369.956 559.543 369.691 559.543C369.427 559.543 369.165 559.601 368.923 559.714C366.864 560.639 365.45 565.086 365.388 565.281C365.366 565.345 365.362 565.413 365.376 565.48C365.389 565.546 365.42 565.606 365.465 565.654C365.507 565.704 365.56 565.741 365.619 565.764C365.678 565.786 365.741 565.793 365.803 565.784C365.965 565.733 366.124 565.673 366.28 565.606ZM369.23 560.363C369.376 560.299 369.533 560.266 369.691 560.266C369.849 560.266 370.006 560.299 370.152 560.363C370.567 560.574 370.598 560.818 370.582 561.012C370.46 562.132 368.001 564.064 366.249 564.745C366.787 563.301 367.909 560.915 369.123 560.363H369.23Z" fill="#0C1B80"/>
<path d="M281.083 233.453L284.157 233.258C284.157 233.258 282.19 235.319 281.083 233.453Z" fill="#263238"/>
<path d="M233.137 304.332C231.601 309.088 230.064 314.169 228.635 319.151C227.206 324.134 225.838 329.199 224.516 334.23C223.195 339.262 222.058 344.326 220.966 349.374C219.875 354.422 218.984 359.47 218.277 364.501C217.717 369.287 217.568 374.117 217.832 378.931C218.062 384.044 218.385 389.27 218.892 394.513C219.86 404.982 221.074 415.614 222.334 426.164V426.245C222.434 427.416 222.129 428.585 221.476 429.537C220.823 430.489 219.866 431.159 218.782 431.424C217.698 431.689 216.559 431.531 215.577 430.979C214.594 430.427 213.834 429.518 213.436 428.42C210.108 418.043 207.338 407.476 205.138 396.769C204.062 391.397 203.064 385.943 202.387 380.359C201.562 374.478 201.325 368.52 201.681 362.586C202.581 351.439 204.287 340.38 206.782 329.507C207.981 324.097 209.328 318.762 210.824 313.503C212.361 308.195 213.898 303.034 215.788 297.661C216.191 296.455 216.816 295.344 217.626 294.393C218.436 293.441 219.415 292.668 220.509 292.116C221.602 291.564 222.787 291.246 223.997 291.178C225.206 291.11 226.417 291.294 227.559 291.721C228.701 292.147 229.753 292.807 230.654 293.662C231.554 294.518 232.287 295.552 232.809 296.707C233.331 297.861 233.633 299.113 233.698 300.391C233.762 301.669 233.587 302.947 233.183 304.154L233.137 304.332Z" fill="#FF9A8D"/>
<path d="M225.085 280.443C218.707 282.066 209.917 304.384 209.917 304.384L229.634 323.26C229.634 323.26 243.111 305.828 240.959 297.063C238.716 287.974 232.354 278.592 225.085 280.443Z" fill="#263238"/>
<path d="M236.027 437.934L235.95 437.48C235.699 435.943 235.114 434.488 234.242 433.23C233.371 431.971 232.235 430.942 230.925 430.224L220.352 424.43L214.097 425.663C212.93 432.318 220.644 438.859 220.644 438.859L222.334 442.625C222.896 443.892 223.882 444.894 225.103 445.437C226.324 445.979 227.692 446.024 228.942 445.563L232.523 444.232C233.715 443.785 234.719 442.908 235.36 441.757C236.001 440.605 236.237 439.251 236.027 437.934Z" fill="#FF9A8D"/>
<path d="M340.094 325.63C341.369 327.058 344.12 326.522 346.241 324.412C348.361 322.302 349.022 319.446 347.777 318.017C346.533 316.589 343.751 317.141 341.631 319.235C339.51 321.328 338.803 324.201 340.094 325.63Z" fill="#0C1B80"/>
<path d="M348.315 331.796H348.085C347.808 331.796 341.323 330.628 342.768 319.493C342.795 319.28 342.862 319.074 342.964 318.888C343.066 318.703 343.203 318.54 343.365 318.409C343.526 318.279 343.711 318.184 343.908 318.129C344.105 318.074 344.31 318.06 344.512 318.089C344.714 318.118 344.908 318.188 345.084 318.296C345.26 318.405 345.414 318.548 345.538 318.719C345.661 318.89 345.752 319.085 345.804 319.293C345.856 319.501 345.868 319.718 345.841 319.931C344.812 327.787 348.5 328.582 348.546 328.582C348.946 328.647 349.307 328.875 349.549 329.219C349.79 329.562 349.894 329.993 349.837 330.417C349.781 330.801 349.598 331.151 349.318 331.405C349.039 331.658 348.683 331.797 348.315 331.796Z" fill="#0C1B80"/>
<path d="M340.662 324.07C341.415 324.914 343.306 324.33 344.858 322.772C346.41 321.213 347.086 319.266 346.394 318.422C345.703 317.578 343.751 318.146 342.199 319.704C340.647 321.262 339.909 323.21 340.662 324.07Z" fill="white"/>
</svg>
