<svg width="944" height="580" viewBox="0 0 944 580" fill="none" xmlns="http://www.w3.org/2000/svg">
<path d="M681.579 131.345C681.579 131.345 711.633 95.033 769.259 118.172C826.887 141.313 883.285 236.325 830.867 351.271" stroke="#274D79" stroke-width="0.782"/>
<path fill-rule="evenodd" clip-rule="evenodd" d="M687.436 156.662C684.8 163.445 658.604 153.236 661.237 146.453L664.908 137.008C667.724 129.761 675.871 126.175 683.103 128.992C690.34 131.814 693.923 139.97 691.107 147.217L687.436 156.662Z" fill="#0C1B80"/>
<path fill-rule="evenodd" clip-rule="evenodd" d="M661.237 146.453C658.248 153.087 684.8 163.445 687.436 156.662C689.438 151.425 663.39 141.675 661.237 146.453" fill="#0A1629"/>
<path fill-rule="evenodd" clip-rule="evenodd" d="M671.583 151.545C671.295 152.393 670.043 152.735 668.782 152.307C667.519 151.881 666.73 150.849 667.015 150.001C667.3 149.154 668.554 148.811 669.815 149.239C671.078 149.665 671.868 150.697 671.583 151.545" fill="#0C1B80"/>
<path fill-rule="evenodd" clip-rule="evenodd" d="M680.881 154.98C680.594 155.827 679.342 156.168 678.081 155.742C676.818 155.316 676.026 154.282 676.313 153.434C676.598 152.586 677.853 152.246 679.114 152.672C680.377 153.1 681.166 154.132 680.881 154.98" fill="#0C1B80"/>
<path fill-rule="evenodd" clip-rule="evenodd" d="M826.683 486.421C826.683 486.421 815.354 483.296 807.966 472.921C800.578 462.542 804.519 437.757 817.324 430.666C830.128 423.58 839.979 415.193 838.01 395.959C836.04 376.722 842.444 361.434 858.698 359.462C874.952 357.488 881.355 357.246 897.609 342.571C913.863 327.895 927.159 325.572 933.562 333.883C939.965 342.197 935.04 353.43 931.593 363.351C928.146 373.27 940.459 383.394 942.922 393.376C945.384 403.357 943.413 416.234 930.608 423.36C917.802 430.484 908.938 436.191 910.416 449.121C911.892 462.048 904.504 481.693 876.921 486.421H826.683Z" fill="#0ACE5F"/>
<path d="M912.878 354.645C912.878 354.645 852.879 401.792 842.243 486.422" stroke="#9DFB8B" stroke-width="1.575" stroke-linecap="round"/>
<g filter="url(#filter0_d_371_51243)">
<path fill-rule="evenodd" clip-rule="evenodd" d="M770.532 319.483C761.078 325.432 761.666 335.744 762.16 348.837C762.651 361.929 758.903 366.688 751.419 375.406C743.936 384.124 747.971 397.44 760.978 403.358C773.979 409.278 785.308 418.424 778.414 433.827C771.517 449.229 773.979 477.256 807.965 486.422L851.666 486.521C851.666 486.521 882.339 468.637 886.279 435.999C890.22 403.358 864.115 400.477 856.727 389.587C849.339 378.697 851.535 363.859 851.666 348.837C851.802 333.814 840.473 326.21 825.206 327.053C809.937 327.896 803.974 327.035 796.093 321.635C788.214 316.238 778.414 314.525 770.532 319.483Z" fill="#0ACE5F"/>
</g>
<path d="M785.728 338.855C785.821 339.29 838.881 375.398 836.28 486.255" stroke="#9DFB8B" stroke-width="1.575" stroke-linecap="round"/>
<path fill-rule="evenodd" clip-rule="evenodd" d="M908.408 492.835H3.95631C2.04846 492.835 0.502441 491.287 0.502441 489.377C0.502441 487.466 2.04846 485.918 3.95631 485.918H908.408C910.316 485.918 911.862 487.466 911.862 489.377C911.862 491.287 910.316 492.835 908.408 492.835" fill="#0ACE5F"/>
<mask id="mask0_371_51243" style="mask-type:alpha" maskUnits="userSpaceOnUse" x="154" y="492" width="699" height="88">
<path fill-rule="evenodd" clip-rule="evenodd" d="M154.909 492.832H852.984V579.141H154.909V492.832Z" fill="white"/>
</mask>
<g mask="url(#mask0_371_51243)">
<path fill-rule="evenodd" clip-rule="evenodd" d="M783.606 579.142H224.286C185.969 579.142 154.909 548.038 154.909 509.668V492.832H852.984V509.668C852.984 548.038 821.923 579.142 783.606 579.142" fill="#F5FEF3"/>
</g>
<path fill-rule="evenodd" clip-rule="evenodd" d="M454.448 456.487C461.834 462.447 482.926 486.358 563.494 486.358C585.965 486.358 610.238 487.298 629.953 481.94C680.921 468.082 714.286 449.521 714.286 449.521L615.71 415.93L527.337 416.435L454.448 456.487Z" fill="#131313"/>
<path fill-rule="evenodd" clip-rule="evenodd" d="M522.266 442.395L483.719 449.747L485.114 470.766L528.319 469.701L522.266 442.395Z" fill="#FF9A8D"/>
<path fill-rule="evenodd" clip-rule="evenodd" d="M522.266 442.394C522.266 442.394 615.709 415.93 644.766 408.537C678.035 400.069 728.505 377.086 745.52 398.389C762.532 419.69 741.779 448.064 695.753 460.504C649.728 472.942 523.782 471.719 523.782 471.719L522.266 442.394Z" fill="#0C1B80"/>
<path fill-rule="evenodd" clip-rule="evenodd" d="M447.452 436.887C447.452 436.887 445.941 441.718 446.182 451.953C446.421 462.191 451.599 469.958 452.127 484.888C452.127 484.888 457.917 475.353 457.638 459.878C457.357 444.403 447.452 436.887 447.452 436.887" fill="#8FC9C6"/>
<path fill-rule="evenodd" clip-rule="evenodd" d="M503.35 471.233C497.313 471.879 487.221 476.596 481.028 479.881C474.836 483.164 471.531 486.598 460.485 486.519C460.485 486.519 460.441 457.276 459.259 448.228C458.075 439.183 456.25 437.633 456.25 437.633C456.25 437.633 466.483 438.285 471.572 441.017C476.66 443.746 477.23 444.998 486.21 445.347C495.186 445.699 498.859 446.182 502.776 446.109C508.732 455.435 506.361 466.762 503.35 471.233" fill="#03AA99"/>
<path d="M477.221 474.693C477.221 474.693 480.649 459.508 475.627 449.121" stroke="#AAEEED" stroke-width="0.924" stroke-linecap="round"/>
<path d="M483.556 472.922C483.556 472.922 486.883 461.382 481.997 450.332" stroke="#AAEEED" stroke-width="0.924" stroke-linecap="round"/>
<path d="M490.681 470.058C490.681 470.058 493.692 462.344 489.692 450.949" stroke="#AAEEED" stroke-width="0.924" stroke-linecap="round"/>
<path fill-rule="evenodd" clip-rule="evenodd" d="M460.485 486.52C456.987 486.456 452.718 486.355 452.126 484.891C451.534 483.424 455.621 474.695 453.994 457.399C453.121 448.106 446.613 437.197 447.453 436.887C448.29 436.582 453.404 434.663 456.251 437.634C459.099 440.605 473.531 459.576 460.485 486.52" fill="#AAEEED"/>
<path fill-rule="evenodd" clip-rule="evenodd" d="M692.068 249.063C704.219 240.455 730.41 220.425 744.188 177.417C748.56 163.767 748.949 154.406 748.832 148.141C741.73 142.146 742.473 130.821 735.991 123.79C726.877 113.901 718.71 101.352 736.537 101.352C746.479 101.352 755.624 101.756 760.514 106.494C764.393 110.252 771.722 121.366 773.069 125.235C776.104 133.984 772.58 145.001 772.198 158.31C771.819 171.622 763.084 254.906 698.904 289.892L692.068 249.063Z" fill="#FF9A8D"/>
<path fill-rule="evenodd" clip-rule="evenodd" d="M552.972 217.695C552.972 217.695 552.682 228.354 551.757 232.755C550.831 237.158 551.757 239.474 538.338 241.791C538.338 241.791 543.79 259.398 567.041 262.411C590.297 265.422 599.782 247.118 599.087 247.118C598.394 247.118 591.916 244.453 589.835 243.102C587.751 241.752 589.291 216.074 589.291 216.074L552.972 217.695Z" fill="#FF9A8D"/>
<path fill-rule="evenodd" clip-rule="evenodd" d="M588.977 222.572C588.977 222.572 586.135 231.595 572.024 232.522C557.908 233.451 552.651 224.54 552.651 224.54L552.972 217.695L589.291 216.074L588.977 222.572Z" fill="#BA5964"/>
<path fill-rule="evenodd" clip-rule="evenodd" d="M530.777 179C530.777 179 523.483 177.856 520.277 183.23C517.071 188.603 521.077 198.643 528.671 200.317C535.948 201.922 538.338 197.835 538.338 197.835L530.777 179Z" fill="#FF9A8D"/>
<path fill-rule="evenodd" clip-rule="evenodd" d="M524.401 184.364C526.075 183.495 528.724 183.233 530.364 184.232C530.971 184.604 530.151 185.64 529.599 185.513C526.469 184.808 522.803 185.142 521.798 188.833C521.746 189.028 521.588 188.851 521.597 188.723C521.717 186.745 522.616 185.291 524.401 184.364" fill="#BA5964"/>
<path fill-rule="evenodd" clip-rule="evenodd" d="M525.83 184.457C526.139 184.255 527.003 184.98 526.966 185.219C526.512 185.511 525.81 186.17 525.529 186.87C525.049 188.074 524.997 189.064 525.277 190.344C525.918 193.287 527.874 195.2 530.863 195.485C530.917 195.49 531.025 195.628 530.942 195.663C528.501 196.631 525.293 194.405 524.409 192.22C523.429 189.8 523.124 186.218 525.83 184.457" fill="#BA5964"/>
<path fill-rule="evenodd" clip-rule="evenodd" d="M601.334 165.432C601.334 165.432 607.693 161.662 612.66 165.463C617.627 169.266 617.618 180.077 611.182 184.449C605.018 188.637 601.288 185.732 601.288 185.732L601.334 165.432Z" fill="#FF9A8D"/>
<path fill-rule="evenodd" clip-rule="evenodd" d="M609.249 168.048C607.376 167.861 604.817 168.601 603.661 170.138C603.234 170.707 604.378 171.366 604.848 171.043C607.492 169.227 611.025 168.177 613.319 171.232C613.442 171.395 613.523 171.173 613.468 171.056C612.622 169.264 611.251 168.245 609.249 168.048" fill="#BA5964"/>
<path fill-rule="evenodd" clip-rule="evenodd" d="M607.956 168.664C607.594 168.591 607.061 169.584 607.181 169.793C607.714 169.896 608.607 170.249 609.127 170.796C610.019 171.732 610.434 172.634 610.648 173.925C611.14 176.899 610.032 179.4 607.361 180.775C607.311 180.799 607.265 180.968 607.352 180.968C609.98 180.966 612.133 177.705 612.146 175.346C612.162 172.737 611.12 169.296 607.956 168.664" fill="#BA5964"/>
<path fill-rule="evenodd" clip-rule="evenodd" d="M575.199 130.031C569.534 128.086 563.497 127.469 557.688 128.584C551.875 129.704 546.156 132.291 541.616 136.2C531.02 145.32 526.928 159.743 529.507 173.263C529.511 173.281 529.516 173.301 529.52 173.32C530.257 177.187 531.222 181.011 532.408 184.763L534.066 190.012C535.362 194.12 538.289 201.973 542.969 209.154C552.252 223.401 567.324 225.74 575.999 224.073C584.672 222.404 597.81 214.639 601.161 197.963C602.849 189.557 602.665 181.177 602.352 176.88L601.948 171.39C601.661 167.466 601.143 163.557 600.4 159.69C600.395 159.67 600.391 159.65 600.387 159.631C597.784 146.117 588.413 134.57 575.199 130.031" fill="#FF9A8D"/>
<path fill-rule="evenodd" clip-rule="evenodd" d="M580.415 170.482C580.021 168.429 581.365 166.448 583.413 166.053C585.464 165.66 587.444 167.004 587.838 169.055C588.229 171.108 586.889 173.091 584.841 173.484C582.79 173.879 580.81 172.535 580.415 170.482" fill="#001C45"/>
<path fill-rule="evenodd" clip-rule="evenodd" d="M581.328 156.762L599.123 160.139C599.123 160.139 597.858 155.244 591.529 152.682C588.768 151.562 585.663 151.663 583.766 152.713C581.027 154.23 581.328 156.762 581.328 156.762" fill="#001C45"/>
<path fill-rule="evenodd" clip-rule="evenodd" d="M550.781 162.197L537.768 174.813C537.768 174.813 536.136 170.025 540.02 164.402C541.713 161.947 544.362 160.322 546.524 160.155C549.643 159.913 550.781 162.197 550.781 162.197" fill="#001C45"/>
<path fill-rule="evenodd" clip-rule="evenodd" d="M556.683 175.571C556.288 173.518 554.308 172.174 552.258 172.569C550.209 172.962 548.867 174.945 549.26 176.998C549.655 179.049 551.635 180.395 553.685 180C555.733 179.607 557.078 177.624 556.683 175.571" fill="#001C45"/>
<path fill-rule="evenodd" clip-rule="evenodd" d="M569.817 171.854C568.102 172.31 566.85 189.887 569.227 192.388C570.214 193.422 572.677 194.165 574.021 193.778C575.413 193.638 577.429 192.035 577.959 190.708C579.242 187.504 571.582 171.643 569.817 171.854" fill="#BA5964"/>
<path d="M510.775 140.237C510.775 140.237 524.277 137.602 529.417 144.537" stroke="#001C45" stroke-width="1.715" stroke-linecap="round"/>
<path d="M510.383 126.93C510.383 126.93 527.137 129.754 529.659 145.793" stroke="#001C45" stroke-width="1.715" stroke-linecap="round"/>
<path fill-rule="evenodd" clip-rule="evenodd" d="M535.045 144.568C535.045 144.568 544.492 158.807 560.016 163.014C575.542 167.222 584.316 149.226 582.743 141.039C582.743 141.039 597.921 165.507 601.335 165.434C601.335 165.434 605.034 155.564 603.826 144.54C602.616 133.516 597.41 128.031 591.782 123.962C586.43 120.09 581.208 122.424 579.057 123.821C576.235 118.496 567.915 107.224 551.533 109.064C533.212 111.12 526.087 123.79 528.758 143.126C528.758 143.126 521.878 141.182 517.76 149.18C513.642 157.178 518.225 172.707 523.705 180.073C523.705 180.073 528.484 178.564 530.777 179.003C530.777 179.003 527.56 166.212 530.58 154.995C533.036 145.871 535.045 144.568 535.045 144.568" fill="#001C45"/>
<path fill-rule="evenodd" clip-rule="evenodd" d="M544.106 240.57C545.748 247.204 555.116 257.723 568.73 258.36C582.346 258.997 593.589 249.839 595.447 245.808C606.815 246.862 621.251 249.949 626.099 250.834C632.965 252.084 639.623 258.217 637.169 277.57C634.788 296.363 619.898 415.158 619.898 415.158C619.898 415.158 580.537 430.453 527.339 416.431C527.339 416.431 495.146 287.491 492.28 276.338C489.418 265.183 485.916 253.39 496.1 249.886C506.284 246.379 544.106 240.57 544.106 240.57" fill="#0ACE5F"/>
<path fill-rule="evenodd" clip-rule="evenodd" d="M588.041 377.747C588.794 377.892 589.548 378.006 590.311 378.086C597.811 378.872 594.399 370.384 592.043 367.042C588.445 361.934 563.494 342.57 563.494 342.57L544.106 344.208L522.267 353.221L513.291 360.199C515.105 367.457 516.865 374.504 518.493 381.019C526.657 375.896 546.4 363.759 550.781 363.351C553.52 363.096 555.994 364.045 558.463 365.112C562.018 366.647 565.584 368.039 569.219 369.37C570.869 369.971 572.522 370.575 574.101 371.342C576.956 372.725 579.544 374.62 582.425 375.951C584.217 376.775 586.107 377.372 588.041 377.747" fill="#03AA99"/>
<path d="M671.827 337.098L685.956 343.846" stroke="#274D79" stroke-width="2.1" stroke-linecap="round"/>
<path d="M665.852 348.836L679.981 355.584" stroke="#274D79" stroke-width="2.1" stroke-linecap="round"/>
<path fill-rule="evenodd" clip-rule="evenodd" d="M674.007 329.444C680.434 332.848 667.285 357.73 660.86 354.326L651.913 349.585C645.051 345.951 642.433 337.433 646.062 330.562C649.694 323.69 658.2 321.068 665.062 324.703L674.007 329.444Z" fill="#0C1B80"/>
<path fill-rule="evenodd" clip-rule="evenodd" d="M626.099 250.837C639.03 252.949 671.94 262.616 692.068 249.062C692.068 249.062 705.36 269.358 703.079 294.837C703.079 294.837 675.799 319.193 633.162 309.421L626.099 250.837Z" fill="#0ACE5F"/>
<path fill-rule="evenodd" clip-rule="evenodd" d="M629.953 448.41L667.792 458.826L664.72 479.665L621.741 475.144L629.953 448.41Z" fill="#FF9A8D"/>
<path fill-rule="evenodd" clip-rule="evenodd" d="M629.953 448.41C629.953 448.41 543.008 418.38 510.774 406.551C478.542 394.725 431.298 371.068 412.636 390.939C393.974 410.811 409.564 440.403 454.449 456.489C499.334 472.574 626.1 477.52 626.1 477.52C629.984 468.084 631.238 458.377 629.953 448.41" fill="#85B8ED"/>
<path fill-rule="evenodd" clip-rule="evenodd" d="M704.969 448.914C704.969 448.914 706.09 453.851 705.03 464.035C703.973 474.22 698.193 481.546 696.474 496.386C696.474 496.386 691.463 486.417 692.98 471.014C694.498 455.614 704.969 448.914 704.969 448.914" fill="#8FC9C6"/>
<path fill-rule="evenodd" clip-rule="evenodd" d="M646.505 478.67C652.472 479.799 662.156 485.308 668.066 489.077C673.974 492.845 676.996 496.536 688.013 497.342C688.013 497.342 690.395 468.193 692.296 459.273C694.195 450.351 696.138 448.952 696.138 448.952C696.138 448.952 685.886 448.783 680.597 451.097C675.305 453.412 674.638 454.613 665.661 454.242C656.685 453.873 652.983 454.06 649.084 453.673C642.404 462.492 643.861 473.971 646.505 478.67" fill="#03AA99"/>
<path d="M672.274 484.211C672.274 484.211 670.07 468.798 675.906 458.848" stroke="#AAEEED" stroke-width="0.924" stroke-linecap="round"/>
<path d="M666.102 481.941C666.102 481.941 663.708 470.173 669.46 459.547" stroke="#AAEEED" stroke-width="0.924" stroke-linecap="round"/>
<path d="M659.228 478.512C659.228 478.512 656.842 470.584 661.741 459.543" stroke="#AAEEED" stroke-width="0.924" stroke-linecap="round"/>
<path fill-rule="evenodd" clip-rule="evenodd" d="M688.012 497.345C691.501 497.562 695.767 497.802 696.473 496.387C697.183 494.978 693.806 485.948 696.808 468.839C698.42 459.645 705.782 449.291 704.968 448.915C704.157 448.542 699.212 446.221 696.137 448.955C693.063 451.689 677.162 469.441 688.012 497.345" fill="#AAEEED"/>
<path fill-rule="evenodd" clip-rule="evenodd" d="M629.84 464.036H627.884C627.884 464.036 571.212 460.351 510.523 450.331C450.903 440.486 410.6 420.411 405.192 405.641C402.538 423.503 419.713 444.039 454.449 456.486C499.332 472.573 626.101 477.519 626.101 477.519C627.732 473.603 629.039 469.2 629.84 464.036" fill="#4E7EAC"/>
<path fill-rule="evenodd" clip-rule="evenodd" d="M502 312.636C502 312.636 509.115 294.721 504.253 268.297C504.253 268.297 513.169 300.536 503.494 318.297L502 312.636Z" fill="#03AA99"/>
<path fill-rule="evenodd" clip-rule="evenodd" d="M632.914 308.635C632.914 308.635 635.332 288.276 631 269.297C631 269.297 636.265 280.216 635.99 309.297L632.914 308.635Z" fill="#03AA99"/>
<path fill-rule="evenodd" clip-rule="evenodd" d="M363.341 412.489C371.144 410.896 384.813 409.503 394.522 418.103C400.73 423.603 397.79 424.557 392.25 424.458C382.919 424.288 375.484 432.227 375.484 432.227C375.484 432.227 363.348 433.632 360.367 423.858C356.049 409.699 363.341 412.489 363.341 412.489" fill="#E09B36"/>
<path fill-rule="evenodd" clip-rule="evenodd" d="M333.151 484.248H393.615C407.421 484.56 416.837 483.5 423.613 477.525C431.478 470.583 432.847 458.202 431.592 448.732C430.125 444.922 421.768 447.744 411.466 446.008C402.117 444.432 396.71 440.234 391.365 433.131C386.059 426.082 383.207 423.245 372.701 418.148C366.921 415.346 362.251 415.626 362.251 415.626C362.251 415.626 365.963 407.546 371.584 402.366C378.382 396.104 366.263 393.615 352.449 399.802C344.248 403.476 335.656 410.654 329.62 417.501C325.702 421.94 315.463 421.276 304.364 412.782C293.27 404.289 254.354 369.037 211.738 374.965C169.124 380.894 139.534 415.665 135.194 440.664C130.853 465.659 139.214 479.857 146.45 484.296L333.151 484.248Z" fill="#FABA50"/>
<path fill-rule="evenodd" clip-rule="evenodd" d="M139 441.342C127.138 434.893 96.8097 434.479 73.9653 452.725C51.6912 470.515 42.4131 507.64 60.7632 535.653C79.1133 563.663 115.423 564.541 120.11 560.581C124.793 556.618 100.749 542.317 94.2215 524.054C94.2215 524.054 107.226 532.352 114.644 533.133C122.06 533.918 103.32 514.722 101.368 494.377C99.4155 474.031 109.433 451.707 134.098 452.694L139 441.342Z" fill="#FABA50"/>
<path fill-rule="evenodd" clip-rule="evenodd" d="M430.603 462.29C429.264 462.542 429.756 455.348 428.131 456.037C426.504 456.724 429.138 460.408 429.138 460.408C424.516 459.302 417.994 452.859 420.592 448.871C423.272 444.76 430.778 446.632 432.538 447.346C435.219 448.432 437.067 457.105 430.603 462.29" fill="#001C45"/>
<path fill-rule="evenodd" clip-rule="evenodd" d="M205 406.474C205 406.474 221.282 407.825 227.517 425.521C233.751 443.218 226.82 453.846 221.686 459.563C221.686 459.563 244.789 457.349 255.06 464.171C265.326 470.991 264.409 484.264 264.409 484.264L270 484.297C270 484.297 270.244 468.048 259.425 461.23C248.605 454.408 239.473 453.558 233.421 453.978C233.421 453.978 239.776 440.198 232.505 423.986C225.236 407.783 211.419 405.552 205 406.474" fill="#E09B36"/>
<path fill-rule="evenodd" clip-rule="evenodd" d="M290 458.576C290 458.576 314.044 455.884 324.229 463.618C334.417 471.352 333.211 484.248 333.211 484.248L338.924 484.297C338.924 484.297 340.427 470.516 330.073 462.106C319.722 453.699 296.845 456.222 290 458.576" fill="#E09B36"/>
<path fill-rule="evenodd" clip-rule="evenodd" d="M359.049 448.297C359.049 448.297 358.04 442.213 365.202 440.616C372.929 438.894 375 444.698 375 444.698C375 444.698 371.09 443.191 365.939 444.457C362.16 445.386 359.049 448.297 359.049 448.297" fill="#001C45"/>
<path fill-rule="evenodd" clip-rule="evenodd" d="M450.548 108.91C451.947 110.151 453.005 111.573 453.731 113.183C454.459 114.796 454.876 116.455 454.976 118.163C455.077 119.872 454.856 121.562 454.312 123.234C453.768 124.906 452.891 126.427 451.683 127.792C450.445 129.191 449.031 130.262 447.439 131.004C445.847 131.747 444.201 132.167 442.495 132.272C440.792 132.375 439.106 132.156 437.438 131.609C435.769 131.061 434.239 130.169 432.843 128.928C431.481 127.717 430.411 126.302 429.64 124.678C428.866 123.054 428.427 121.388 428.326 119.681C428.223 117.972 428.436 116.275 428.964 114.588C429.493 112.902 430.378 111.36 431.615 109.962C432.823 108.595 434.23 107.547 435.835 106.818C437.442 106.09 439.097 105.673 440.805 105.572C442.511 105.468 444.219 105.697 445.935 106.255C447.647 106.813 449.186 107.699 450.548 108.91V108.91ZM388.658 48.2969L435.228 96.6569L419.629 114.293L368 71.6529L388.658 48.2969Z" fill="#0C1B80"/>
<mask id="mask1_371_51243" style="mask-type:alpha" maskUnits="userSpaceOnUse" x="433" y="0" width="73" height="98">
<path fill-rule="evenodd" clip-rule="evenodd" d="M433.676 0H505.157V97.5814H433.676V0Z" fill="white"/>
</mask>
<g mask="url(#mask1_371_51243)">
<path fill-rule="evenodd" clip-rule="evenodd" d="M492.401 80.928C492.851 82.7454 492.923 84.521 492.617 86.2635C492.307 88.0083 491.716 89.6145 490.84 91.082C489.965 92.5518 488.832 93.8213 487.446 94.895C486.062 95.9665 484.488 96.7234 482.729 97.1678C480.926 97.6211 479.164 97.7025 477.44 97.4121C475.716 97.1216 474.129 96.5364 472.668 95.6541C471.21 94.7718 469.951 93.6343 468.888 92.2349C467.822 90.8378 467.069 89.2316 466.618 87.4165C466.179 85.6431 466.096 83.8653 466.373 82.0875C466.65 80.3075 467.227 78.6838 468.102 77.2162C468.979 75.7443 470.106 74.4638 471.487 73.3702C472.869 72.2789 474.458 71.5067 476.261 71.0534C478.021 70.6112 479.765 70.5452 481.494 70.8532C483.222 71.1656 484.816 71.7597 486.272 72.642C487.73 73.5243 489.007 74.6838 490.103 76.1161C491.196 77.5507 491.962 79.1546 492.401 80.928M485.287 65.3636L464.535 70.587C463.164 66.2855 462.505 62.5606 462.553 59.4164C462.599 56.2701 463.046 53.5507 463.891 51.258C464.734 48.9632 465.836 46.9984 467.192 45.3636C468.549 43.7311 469.903 42.2723 471.26 40.9874C472.616 39.7047 473.797 38.4989 474.799 37.3702C475.803 36.2393 476.373 35.0006 476.519 33.6497C476.621 32.8356 476.493 31.9577 476.128 31.0182C475.766 30.0831 475.118 29.269 474.185 28.5825C473.256 27.8961 472.011 27.4318 470.451 27.1898C468.89 26.9478 466.984 27.1084 464.734 27.6761C463.26 28.0457 461.545 28.6199 459.584 29.3966C457.624 30.1755 455.61 31.1194 453.536 32.2349C451.467 33.346 449.454 34.5759 447.505 35.9225C445.555 37.2668 443.851 38.6706 442.386 40.1359L433.676 16.5583C434.967 15.269 436.442 13.9027 438.108 12.4527C439.769 11.005 441.653 9.61004 443.755 8.2701C445.859 6.93017 448.197 5.67164 450.777 4.49892C453.355 3.324 456.199 2.34491 459.312 1.56163C464.343 0.2965 469.276 -0.20295 474.105 0.074278C478.933 0.349306 483.364 1.42521 487.394 3.3042C491.423 5.18319 494.916 7.86306 497.865 11.3504C500.816 14.8378 502.929 19.159 504.206 24.3163C505.177 28.2349 505.404 31.5176 504.887 34.1711C504.37 36.8202 503.442 39.1238 502.097 41.082C500.759 43.0424 499.153 44.8048 497.278 46.3713C495.407 47.9379 493.606 49.5859 491.882 51.313C490.159 53.0402 488.666 55.0028 487.407 57.203C486.15 59.4054 485.442 62.1271 485.287 65.3636" fill="#0C1B80"/>
</g>
<path d="M468.593 398.389C487.172 401.103 520.096 401.769 549.192 375.404C572.621 354.175 593.996 313.645 648.402 331.461" stroke="#274D79" stroke-width="0.782"/>
<path fill-rule="evenodd" clip-rule="evenodd" d="M481.71 269.383C481.71 269.383 437.691 349.057 429.687 362.491C421.683 375.931 423.332 391.017 424.979 394.785C426.628 398.558 449.461 401.151 470.412 393.136C491.359 385.123 545.303 357.678 549.305 355.557C549.305 355.557 554.427 358.936 559.581 361.38C566.778 364.795 572.607 364.936 577.269 368.469C581.931 372.004 587.052 378.744 596.067 374.387C601.433 371.796 589.53 355.074 584.201 345.848C578.993 341.384 560.386 333.67 551.059 335C537.866 336.88 471.618 359.463 471.618 359.463L495.624 317.984L481.71 269.383Z" fill="#FF9A8D"/>
<path fill-rule="evenodd" clip-rule="evenodd" d="M498.38 249.152C487.571 252.554 483.406 257.857 472.832 277.109C462.256 296.363 448.273 319.79 448.273 319.79C448.273 319.79 459.637 337.526 484.687 342.573L501.691 313.81L498.38 249.152Z" fill="#0ACE5F"/>
<path fill-rule="evenodd" clip-rule="evenodd" d="M454.788 456.535C499.665 472.709 626.411 477.682 626.411 477.682C630.292 468.194 631.548 458.434 630.263 448.411C630.263 448.411 543.331 418.216 511.105 406.323C487.807 397.727 456.665 382.912 434.147 382.91C425.515 382.91 418.155 385.085 412.985 390.623C394.324 410.604 409.911 440.361 454.788 456.535Z" fill="#0C1B80"/>
<mask id="mask2_371_51243" style="mask-type:alpha" maskUnits="userSpaceOnUse" x="405" y="382" width="226" height="96">
<path fill-rule="evenodd" clip-rule="evenodd" d="M454.788 456.535C499.665 472.709 626.411 477.682 626.411 477.682C630.292 468.194 631.548 458.434 630.263 448.411C630.263 448.411 543.331 418.216 511.105 406.323C487.807 397.727 456.665 382.912 434.147 382.91C425.515 382.91 418.155 385.085 412.985 390.623C394.324 410.604 409.911 440.361 454.788 456.535Z" fill="white"/>
</mask>
<g mask="url(#mask2_371_51243)">
<path fill-rule="evenodd" clip-rule="evenodd" d="M619.006 443.281C618.932 451.182 617.322 468.928 613.865 479.841Z" fill="#0C1B80"/>
<path d="M619.006 443.281C618.932 451.182 617.322 468.928 613.865 479.841" stroke="#274D79" stroke-width="0.782"/>
</g>
<defs>
<filter id="filter0_d_371_51243" x="743.681" y="316.543" width="147.001" height="177.977" filterUnits="userSpaceOnUse" color-interpolation-filters="sRGB">
<feFlood flood-opacity="0" result="BackgroundImageFix"/>
<feColorMatrix in="SourceAlpha" type="matrix" values="0 0 0 0 0 0 0 0 0 0 0 0 0 0 0 0 0 0 127 0" result="hardAlpha"/>
<feOffset dy="4"/>
<feGaussianBlur stdDeviation="2"/>
<feComposite in2="hardAlpha" operator="out"/>
<feColorMatrix type="matrix" values="0 0 0 0 0 0 0 0 0 0 0 0 0 0 0 0 0 0 0.25 0"/>
<feBlend mode="normal" in2="BackgroundImageFix" result="effect1_dropShadow_371_51243"/>
<feBlend mode="normal" in="SourceGraphic" in2="effect1_dropShadow_371_51243" result="shape"/>
</filter>
</defs>
</svg>
