<svg width="168" height="143" viewBox="0 0 168 143" fill="none" xmlns="http://www.w3.org/2000/svg">
<rect opacity="0.100655" width="168" height="140" rx="24" fill="#0ACE5F" fill-opacity="0.75"/>
<path fill-rule="evenodd" clip-rule="evenodd" d="M48.9784 78.8821V65.4777C48.9784 63.1196 53.7568 61.207 59.6483 61.207H83.7761C89.6697 61.207 94.4461 63.1196 94.4461 65.4777V79.3941L48.9784 78.8821Z" fill="#B0D4FF"/>
<path fill-rule="evenodd" clip-rule="evenodd" d="M82.7384 13.6382C79.8866 12.1341 75.5458 11.9308 74.8417 11.8357C66.4045 10.6976 61.3264 23.0051 61.0282 26.7353C60.4773 33.6092 56.8551 34.6571 51.7584 38.9611C41.536 47.594 44.5327 57.6242 50.1223 61.3502C53.4773 63.5874 59.388 61.3502 59.388 61.3502C59.4708 61.4084 75.5541 52.3243 83.4819 47.9413C95.3673 46.2446 90.0055 17.4702 82.7384 13.6382Z" fill="#233862"/>
<path fill-rule="evenodd" clip-rule="evenodd" d="M70.373 44.2559C67.8802 43.1694 65.9939 39.1313 66.0293 39.1292C67.1632 39.0779 68.8322 37.4943 69.791 31.0859L70.0072 31.2384L77.9641 34.7419C77.9641 34.7419 77.3763 37.3073 76.9949 39.7495C76.676 41.8014 76.503 43.7671 76.9469 44.0567C76.9824 44.0793 73.0201 45.4103 70.373 44.2559Z" fill="#FFB27D"/>
<path fill-rule="evenodd" clip-rule="evenodd" d="M77.964 34.5561C77.964 34.5561 77.3877 37.1448 77.0136 39.6092C72.4435 38.776 70.649 34.1582 70.0072 31.6523L77.964 34.5561Z" fill="#ED975D"/>
<path fill-rule="evenodd" clip-rule="evenodd" d="M79.6257 36.7663C79.6257 36.7663 68.4683 35.29 69.5072 28.4653C70.5461 21.6406 69.8067 16.8531 76.9741 17.5046C84.1415 18.1582 85.1259 20.9664 85.3416 23.3272C85.5574 25.688 82.5538 36.9725 79.6257 36.7663Z" fill="#FFB27D"/>
<path fill-rule="evenodd" clip-rule="evenodd" d="M84.7842 20.2703C84.7842 20.2703 77.837 26.5054 73.1125 27.0084C68.3859 27.5114 66.5972 25.9303 66.5972 25.9303C66.5972 25.9303 69.3822 23.5216 71.0589 19.6337C71.5519 18.4877 72.597 17.7024 73.7991 17.5942C77.1728 17.2907 83.568 17.1528 84.7842 20.2703Z" fill="#233862"/>
<path fill-rule="evenodd" clip-rule="evenodd" d="M80.2375 19.3425C80.2375 19.3425 82.5903 21.6464 83.3332 23.355C84.0473 25.0052 84.262 28.9488 83.6924 30.5153C83.6924 30.5153 87.3619 23.2965 85.2836 19.7895C83.0815 16.0694 80.2375 19.3425 80.2375 19.3425Z" fill="#233862"/>
<path fill-rule="evenodd" clip-rule="evenodd" d="M83.9589 80.0533C83.3697 80.5567 81.7178 80.8575 79.545 80.9987C72.7082 81.449 60.6926 80.3336 60.2357 79.0833C58.6583 74.7571 59.7726 73.4125 58.4578 66.7882C58.3192 66.0842 58.1497 65.3209 57.9513 64.49C56.8535 59.9407 55.7867 58.3936 59.6775 51.0837C63.2065 44.4634 66.6043 38.8535 66.935 39.0479C76.2444 44.518 76.9283 40.5218 76.9283 40.5218C76.9283 40.5218 86.6506 49.7392 86.4873 60.5035C86.1544 82.5704 86.3963 77.9577 83.9589 80.0533Z" fill="white"/>
<path fill-rule="evenodd" clip-rule="evenodd" d="M60.9036 79.0905C59.3111 74.6972 59.9677 72.754 58.6403 66.0269L62.2756 57.2305C62.2756 57.2305 61.7267 67.6236 64.8031 70.3565C67.8795 73.0893 77.4052 75.6331 78.9016 77.917C79.6238 79.0143 80.0997 80.1116 80.2374 80.9949C73.3353 81.4521 61.3649 80.3603 60.9036 79.0905Z" fill="#EBF3FF"/>
<path fill-rule="evenodd" clip-rule="evenodd" d="M71.7123 76.5632C71.7123 76.5632 78.4534 74.9167 79.5404 75.5721C80.6274 76.2299 83.285 78.6203 83.6198 79.4527C83.9525 80.285 81.1978 78.8199 80.3009 78.5568C79.7223 78.3867 78.193 78.9673 77.4387 79.244C74.2562 80.4097 72.3075 79.811 72.3075 79.811L71.7123 76.5632Z" fill="#FFB27D"/>
<path fill-rule="evenodd" clip-rule="evenodd" d="M55.1649 43.5836C50.7785 49.6687 42.0796 75.5994 47.0659 79.06C52.681 82.9539 72.618 80.0779 72.618 80.0779C72.618 80.0779 73.2816 76.9935 72.3591 75.4993C71.4346 74.0071 56.4346 71.5972 55.7422 70.9084C55.0498 70.2195 64.3958 57.4749 64.3958 55.4084C64.3958 53.3419 66.935 39.043 66.935 39.043C66.935 39.043 58.2795 39.2605 55.1649 43.5836Z" fill="white"/>
<path fill-rule="evenodd" clip-rule="evenodd" d="M79.6691 77.6914C79.6691 77.6914 81.1902 79.5674 81.6891 79.7907C82.1879 80.014 82.5109 79.9587 82.5109 79.9587L81.4864 78.1955L79.6691 77.6914Z" fill="#FFB27D"/>
<path fill-rule="evenodd" clip-rule="evenodd" d="M79.1008 75.9844L83.6476 77.9922C83.6476 77.9922 83.4531 78.2793 82.8948 78.2565C82.3341 78.2336 80.9223 77.7633 80.9223 77.7633L79.1008 75.9844Z" fill="#FFB27D"/>
<path fill-rule="evenodd" clip-rule="evenodd" d="M81.9425 82.2358H114.273L124 57.7969H91.7185L81.9425 82.2358Z" fill="#FDC748"/>
<path fill-rule="evenodd" clip-rule="evenodd" d="M114.338 81.1016H71.7123V82.2383H113.96L114.338 81.1016Z" fill="#E6B137"/>
<path fill-rule="evenodd" clip-rule="evenodd" d="M105.746 70.0176C106.007 69.2336 105.483 68.5977 104.577 68.5977C103.673 68.5977 102.729 69.2336 102.469 70.0176C102.211 70.8016 102.734 71.4394 103.638 71.4394C104.544 71.4394 105.488 70.8016 105.746 70.0176Z" fill="white"/>
<g filter="url(#filter0_d_281_66422)">
<rect x="42" y="93" width="85" height="32" rx="8" fill="#0ACE5F"/>
</g>
<path fill-rule="evenodd" clip-rule="evenodd" d="M58.7446 102.332H58.4113C57.4281 102.33 56.4565 102.56 55.5774 103.004C53.4345 104.075 52.0789 106.267 52.078 108.665L52.0821 108.911C52.1092 109.646 52.2663 110.372 52.5454 111.052L52.616 111.215L52.1524 112.334C51.9438 112.838 51.9496 113.404 52.1685 113.903L52.2188 114.01C52.6962 114.947 53.828 115.359 54.8034 114.931L55.8686 114.463L56.0243 114.531C56.7808 114.841 57.5923 115.001 58.413 114.999C60.8099 114.998 63.0021 113.642 64.0743 111.497C64.5171 110.62 64.7472 109.649 64.7447 108.664L64.7447 108.332C64.5695 105.139 62.0921 102.606 58.9594 102.345L58.7446 102.332ZM58.4096 103.665L58.7166 103.665L58.7079 103.664C61.2458 103.804 63.2723 105.831 63.4123 108.369L63.4113 108.665C63.4133 109.442 63.2323 110.207 62.8829 110.898C62.0351 112.594 60.3045 113.665 58.411 113.665C57.6346 113.667 56.8702 113.486 56.1785 113.137C56.0009 113.047 55.7924 113.042 55.6101 113.122L54.2678 113.71C53.9306 113.858 53.5374 113.705 53.3895 113.368C53.3165 113.201 53.3146 113.012 53.3841 112.845L53.9605 111.454C54.0349 111.275 54.0273 111.072 53.9397 110.898C53.5903 110.207 53.4093 109.442 53.4113 108.667C53.412 106.772 54.4823 105.042 56.176 104.195C56.8702 103.844 57.6346 103.663 58.4096 103.665Z" fill="white"/>
<path d="M75.7188 106.565C75.6733 106.162 75.4858 105.849 75.1562 105.628C74.8267 105.403 74.4119 105.291 73.9119 105.291C73.554 105.291 73.2443 105.348 72.983 105.462C72.7216 105.572 72.5185 105.726 72.3736 105.922C72.2315 106.115 72.1605 106.335 72.1605 106.582C72.1605 106.79 72.2088 106.969 72.3054 107.119C72.4048 107.27 72.5341 107.396 72.6932 107.499C72.8551 107.598 73.0284 107.682 73.2131 107.75C73.3977 107.815 73.5753 107.869 73.7457 107.912L74.598 108.134C74.8764 108.202 75.1619 108.294 75.4545 108.411C75.7472 108.527 76.0185 108.68 76.2685 108.871C76.5185 109.061 76.7202 109.297 76.8736 109.578C77.0298 109.859 77.108 110.196 77.108 110.588C77.108 111.082 76.9801 111.521 76.7244 111.905C76.4716 112.288 76.1037 112.591 75.6207 112.812C75.1406 113.034 74.5597 113.145 73.8778 113.145C73.2244 113.145 72.6591 113.041 72.1818 112.834C71.7045 112.626 71.331 112.332 71.0611 111.952C70.7912 111.568 70.642 111.114 70.6136 110.588H71.9347C71.9602 110.903 72.0625 111.166 72.2415 111.376C72.4233 111.584 72.6548 111.739 72.9361 111.841C73.2202 111.94 73.5312 111.99 73.8693 111.99C74.2415 111.99 74.5724 111.932 74.8622 111.815C75.1548 111.696 75.3849 111.531 75.5526 111.321C75.7202 111.108 75.804 110.859 75.804 110.575C75.804 110.317 75.7301 110.105 75.5824 109.94C75.4375 109.776 75.2401 109.639 74.9901 109.531C74.7429 109.423 74.4631 109.328 74.1506 109.246L73.1193 108.964C72.4205 108.774 71.8665 108.494 71.4574 108.125C71.0511 107.756 70.848 107.267 70.848 106.659C70.848 106.156 70.9844 105.717 71.2571 105.342C71.5298 104.967 71.8991 104.676 72.3651 104.469C72.831 104.259 73.3565 104.153 73.9418 104.153C74.5327 104.153 75.054 104.257 75.5057 104.464C75.9602 104.672 76.3182 104.957 76.5795 105.321C76.8409 105.682 76.9773 106.097 76.9886 106.565H75.7188ZM82.7255 110.286V106.455H84.0039V113H82.7511V111.866H82.6829C82.5323 112.216 82.2908 112.507 81.9585 112.74C81.6289 112.97 81.2184 113.085 80.7269 113.085C80.3065 113.085 79.9343 112.993 79.6104 112.808C79.2894 112.621 79.0366 112.344 78.8519 111.977C78.6701 111.611 78.5792 111.158 78.5792 110.618V106.455H79.8533V110.464C79.8533 110.911 79.9769 111.266 80.2241 111.53C80.4712 111.794 80.7923 111.926 81.1871 111.926C81.4258 111.926 81.663 111.866 81.8988 111.747C82.1374 111.628 82.3349 111.447 82.4911 111.206C82.6502 110.964 82.7283 110.658 82.7255 110.286ZM85.7159 115.455V106.455H86.9602V107.516H87.0668C87.1406 107.379 87.2472 107.222 87.3864 107.043C87.5256 106.864 87.7188 106.707 87.9659 106.574C88.2131 106.438 88.5398 106.369 88.946 106.369C89.4744 106.369 89.946 106.503 90.3608 106.77C90.7756 107.037 91.1009 107.422 91.3366 107.925C91.5753 108.428 91.6946 109.033 91.6946 109.74C91.6946 110.447 91.5767 111.054 91.3409 111.56C91.1051 112.062 90.7813 112.45 90.3693 112.723C89.9574 112.993 89.4872 113.128 88.9588 113.128C88.5611 113.128 88.2358 113.061 87.983 112.928C87.733 112.794 87.5369 112.638 87.3949 112.459C87.2528 112.28 87.1435 112.121 87.0668 111.982H86.9901V115.455H85.7159ZM86.9645 109.727C86.9645 110.187 87.0313 110.591 87.1648 110.938C87.2983 111.284 87.4915 111.555 87.7443 111.751C87.9972 111.945 88.3068 112.041 88.6733 112.041C89.054 112.041 89.3722 111.94 89.6278 111.739C89.8835 111.534 90.0767 111.257 90.2074 110.908C90.3409 110.558 90.4077 110.165 90.4077 109.727C90.4077 109.295 90.3423 108.908 90.2116 108.564C90.0838 108.22 89.8906 107.949 89.6321 107.75C89.3764 107.551 89.0568 107.452 88.6733 107.452C88.304 107.452 87.9915 107.547 87.7358 107.737C87.483 107.928 87.2912 108.193 87.1605 108.534C87.0298 108.875 86.9645 109.273 86.9645 109.727ZM93.1222 115.455V106.455H94.3665V107.516H94.473C94.5469 107.379 94.6534 107.222 94.7926 107.043C94.9318 106.864 95.125 106.707 95.3722 106.574C95.6193 106.438 95.946 106.369 96.3523 106.369C96.8807 106.369 97.3523 106.503 97.767 106.77C98.1818 107.037 98.5071 107.422 98.7429 107.925C98.9815 108.428 99.1009 109.033 99.1009 109.74C99.1009 110.447 98.983 111.054 98.7472 111.56C98.5114 112.062 98.1875 112.45 97.7756 112.723C97.3636 112.993 96.8935 113.128 96.3651 113.128C95.9673 113.128 95.642 113.061 95.3892 112.928C95.1392 112.794 94.9432 112.638 94.8011 112.459C94.6591 112.28 94.5497 112.121 94.473 111.982H94.3963V115.455H93.1222ZM94.3707 109.727C94.3707 110.187 94.4375 110.591 94.571 110.938C94.7045 111.284 94.8977 111.555 95.1506 111.751C95.4034 111.945 95.7131 112.041 96.0795 112.041C96.4602 112.041 96.7784 111.94 97.0341 111.739C97.2898 111.534 97.483 111.257 97.6136 110.908C97.7472 110.558 97.8139 110.165 97.8139 109.727C97.8139 109.295 97.7486 108.908 97.6179 108.564C97.4901 108.22 97.2969 107.949 97.0384 107.75C96.7827 107.551 96.4631 107.452 96.0795 107.452C95.7102 107.452 95.3977 107.547 95.142 107.737C94.8892 107.928 94.6974 108.193 94.5668 108.534C94.4361 108.875 94.3707 109.273 94.3707 109.727ZM103.286 113.132C102.672 113.132 102.136 112.991 101.679 112.71C101.222 112.429 100.866 112.036 100.614 111.53C100.361 111.024 100.234 110.433 100.234 109.757C100.234 109.078 100.361 108.484 100.614 107.976C100.866 107.467 101.222 107.072 101.679 106.791C102.136 106.51 102.672 106.369 103.286 106.369C103.899 106.369 104.435 106.51 104.892 106.791C105.349 107.072 105.705 107.467 105.957 107.976C106.21 108.484 106.337 109.078 106.337 109.757C106.337 110.433 106.21 111.024 105.957 111.53C105.705 112.036 105.349 112.429 104.892 112.71C104.435 112.991 103.899 113.132 103.286 113.132ZM103.29 112.062C103.688 112.062 104.017 111.957 104.278 111.747C104.54 111.537 104.733 111.257 104.858 110.908C104.986 110.558 105.05 110.173 105.05 109.753C105.05 109.335 104.986 108.952 104.858 108.602C104.733 108.25 104.54 107.967 104.278 107.754C104.017 107.541 103.688 107.435 103.29 107.435C102.889 107.435 102.557 107.541 102.293 107.754C102.031 107.967 101.837 108.25 101.709 108.602C101.584 108.952 101.521 109.335 101.521 109.753C101.521 110.173 101.584 110.558 101.709 110.908C101.837 111.257 102.031 111.537 102.293 111.747C102.557 111.957 102.889 112.062 103.29 112.062ZM107.759 113V106.455H108.99V107.494H109.059C109.178 107.142 109.388 106.865 109.689 106.663C109.993 106.459 110.337 106.357 110.721 106.357C110.8 106.357 110.894 106.359 111.002 106.365C111.113 106.371 111.199 106.378 111.262 106.386V107.605C111.211 107.591 111.12 107.575 110.989 107.558C110.858 107.538 110.728 107.528 110.597 107.528C110.296 107.528 110.027 107.592 109.792 107.72C109.559 107.845 109.374 108.02 109.238 108.244C109.101 108.466 109.033 108.719 109.033 109.003V113H107.759ZM115.806 106.455V107.477H112.231V106.455H115.806ZM113.19 104.886H114.464V111.078C114.464 111.325 114.501 111.511 114.575 111.636C114.649 111.759 114.744 111.842 114.86 111.888C114.98 111.93 115.109 111.952 115.248 111.952C115.35 111.952 115.44 111.945 115.517 111.93C115.593 111.916 115.653 111.905 115.696 111.896L115.926 112.949C115.852 112.977 115.747 113.006 115.61 113.034C115.474 113.065 115.304 113.082 115.099 113.085C114.764 113.091 114.451 113.031 114.162 112.906C113.872 112.781 113.637 112.588 113.458 112.327C113.279 112.065 113.19 111.737 113.19 111.342V104.886Z" fill="white"/>
<defs>
<filter id="filter0_d_281_66422" x="30" y="87" width="109" height="56" filterUnits="userSpaceOnUse" color-interpolation-filters="sRGB">
<feFlood flood-opacity="0" result="BackgroundImageFix"/>
<feColorMatrix in="SourceAlpha" type="matrix" values="0 0 0 0 0 0 0 0 0 0 0 0 0 0 0 0 0 0 127 0" result="hardAlpha"/>
<feOffset dy="6"/>
<feGaussianBlur stdDeviation="6"/>
<feColorMatrix type="matrix" values="0 0 0 0 0.0392157 0 0 0 0 0.807843 0 0 0 0 0.376471 0 0 0 0.2637 0"/>
<feBlend mode="normal" in2="BackgroundImageFix" result="effect1_dropShadow_281_66422"/>
<feBlend mode="normal" in="SourceGraphic" in2="effect1_dropShadow_281_66422" result="shape"/>
</filter>
</defs>
</svg>
