<svg width="24" height="24" viewBox="0 0 24 24" fill="none" xmlns="http://www.w3.org/2000/svg">
<path d="M16.5 9C16.8978 9 17.2794 8.84196 17.5607 8.56066C17.842 8.27936 18 7.89782 18 7.5C18 7.10218 17.842 6.72064 17.5607 6.43934C17.2794 6.15804 16.8978 6 16.5 6C16.1022 6 15.7206 6.15804 15.4393 6.43934C15.158 6.72064 15 7.10218 15 7.5C15 7.89782 15.158 8.27936 15.4393 8.56066C15.7206 8.84196 16.1022 9 16.5 9Z" fill="#DB5C6C"/>
<path d="M11.25 18V17.25H12.75C12.9489 17.25 13.1397 17.171 13.2803 17.0303C13.421 16.8897 13.5 16.6989 13.5 16.5V15H15C16.2599 14.9997 17.4877 14.6028 18.5094 13.8656C19.5311 13.1284 20.2948 12.0882 20.6923 10.8927C21.0897 9.69709 21.1007 8.40674 20.7237 7.20457C20.3467 6.0024 19.6008 4.94941 18.5918 4.1949C17.5828 3.44039 16.3619 3.02264 15.1022 3.00089C13.8425 2.97915 12.6079 3.3545 11.5734 4.07373C10.539 4.79296 9.75721 5.81958 9.33892 7.00802C8.92064 8.19646 8.88708 9.48642 9.243 10.695L3.438 16.5C3.15723 16.7815 2.99969 17.1629 3 17.5605V19.5C3 19.8978 3.15804 20.2794 3.43934 20.5607C3.72064 20.842 4.10218 21 4.5 21H7.5C7.89783 21 8.27936 20.842 8.56066 20.5607C8.84196 20.2794 9 19.8978 9 19.5V18.75H10.5C10.6989 18.75 10.8897 18.671 11.0303 18.5303C11.171 18.3897 11.25 18.1989 11.25 18ZM10.5 9C10.5 8.10998 10.7639 7.23996 11.2584 6.49993C11.7529 5.75991 12.4557 5.18314 13.2779 4.84254C14.1002 4.50195 15.005 4.41283 15.8779 4.58647C16.7508 4.7601 17.5526 5.18868 18.182 5.81802C18.8113 6.44736 19.2399 7.24918 19.4135 8.12209C19.5872 8.99501 19.4981 9.89981 19.1575 10.7221C18.8169 11.5443 18.2401 12.2471 17.5001 12.7416C16.76 13.2361 15.89 13.5 15 13.5H12.75C12.5511 13.5 12.3603 13.579 12.2197 13.7197C12.079 13.8603 12 14.0511 12 14.25V15.75H10.5C10.3011 15.75 10.1103 15.829 9.96967 15.9697C9.82902 16.1103 9.75 16.3011 9.75 16.5V17.25H8.25C8.05109 17.25 7.86032 17.329 7.71967 17.4697C7.57902 17.6103 7.5 17.8011 7.5 18V19.5H4.5V17.5605L10.6335 11.427C10.7363 11.3243 10.8071 11.1939 10.8372 11.0517C10.8673 10.9095 10.8554 10.7616 10.803 10.626C10.608 10.122 10.5 9.576 10.5 9Z" fill="#DB5C6C"/>
</svg>
