<svg width="20" height="20" viewBox="0 0 20 20" fill="none" xmlns="http://www.w3.org/2000/svg">
<path d="M15.8333 6.66536L12.5 9.9987H15C15 12.757 12.7583 14.9987 9.99998 14.9987C9.15831 14.9987 8.35831 14.7904 7.66665 14.4154L6.44998 15.632C7.47498 16.282 8.69165 16.6654 9.99998 16.6654C13.6833 16.6654 16.6666 13.682 16.6666 9.9987H19.1666L15.8333 6.66536ZM4.99998 9.9987C4.99998 7.24036 7.24165 4.9987 9.99998 4.9987C10.8416 4.9987 11.6416 5.20703 12.3333 5.58203L13.55 4.36536C12.525 3.71536 11.3083 3.33203 9.99998 3.33203C6.31665 3.33203 3.33331 6.31536 3.33331 9.9987H0.833313L4.16665 13.332L7.49998 9.9987H4.99998Z" fill="black"/>
</svg>
