<svg width="16" height="16" viewBox="0 0 16 16" fill="none" xmlns="http://www.w3.org/2000/svg">
<path fill-rule="evenodd" clip-rule="evenodd" d="M0 8C0 3.58172 3.58172 0 8 0C12.4183 0 16 3.58172 16 8C16 12.4183 12.4183 16 8 16C3.58172 16 0 12.4183 0 8Z" fill="#0ACE5F"/>
<path fill-rule="evenodd" clip-rule="evenodd" d="M11.8624 5.12322C12.1464 5.40724 12.1464 5.86773 11.8624 6.15174L7.34816 10.879C7.06414 11.163 6.60365 11.163 6.31964 10.879L4.13782 8.6972C3.8538 8.41318 3.8538 7.9527 4.13782 7.66868C4.42184 7.38466 4.88232 7.38466 5.16634 7.66868L6.8339 9.33624L10.8339 5.12322C11.1179 4.83921 11.5784 4.83921 11.8624 5.12322Z" fill="white"/>
</svg>
