<svg width="165" height="32" viewBox="0 0 165 32" fill="none" xmlns="http://www.w3.org/2000/svg">
<path fill-rule="evenodd" clip-rule="evenodd" d="M42.1081 8.43356C42.9634 10.1901 43.4614 12.084 43.589 14.0072C43.7428 16.3253 41.4388 17.7882 39.1688 17.2944C36.8987 16.8006 35.5812 14.4047 34.6246 12.2877C34.5986 12.2303 34.5719 12.1732 34.5442 12.1165C33.8968 10.7868 32.8207 9.71367 31.4892 9.0699C30.1577 8.42613 28.6483 8.24917 27.2041 8.56753C25.7598 8.88588 24.4647 9.68102 23.5272 10.8249C22.5898 11.9688 22.0646 13.3949 22.0362 14.8736C22.0078 16.3522 22.4778 17.7975 23.3706 18.9765C24.2634 20.1556 25.527 20.9999 26.958 21.3735C27.0191 21.3894 27.0803 21.4045 27.1416 21.4186C29.4054 21.9407 32.0133 22.7618 32.9435 24.8906C33.8737 27.0195 32.8919 29.5659 30.5888 29.8705C28.678 30.1232 26.7232 30.007 24.8328 29.5135C21.5742 28.6628 18.6967 26.7401 16.6636 24.0552C16.6161 23.9924 16.5214 23.9924 16.4738 24.0552C14.9338 26.0889 12.8861 27.715 10.506 28.7518C7.86923 29.9005 4.98068 30.2578 2.18354 29.8177C0.395723 29.5364 -0.435764 27.5946 0.226389 25.9102C0.888543 24.2259 2.81925 23.4696 4.6289 23.4453C5.74072 23.4304 6.84936 23.196 7.88853 22.7433C9.94214 21.8487 11.5563 20.1749 12.3758 18.0902C13.1954 16.0055 13.1532 13.6806 12.2586 11.627C11.8059 10.5878 11.1537 9.6612 10.3497 8.89311C9.04112 7.64292 8.14234 5.7743 8.80449 4.08996C9.46665 2.40563 11.3979 1.54992 12.8986 2.56143C14.1094 3.37746 15.1935 4.36532 16.1172 5.49235C16.3488 5.77502 16.7886 5.77503 17.0203 5.49236C19.155 2.88748 22.1042 1.0768 25.3931 0.351849C28.682 -0.373104 32.1192 0.0298557 35.1513 1.49585C38.1833 2.96185 40.6338 5.40557 42.1081 8.43356Z" fill="white"/>
<path d="M64 1.52371C64 0.682187 64.6683 0 65.4926 0C66.317 0 66.9852 0.682187 66.9852 1.52371V19.3728C66.9852 20.2144 66.317 20.8966 65.4926 20.8966C64.6683 20.8966 64 20.2144 64 19.3728V1.52371Z" fill="#0ACE60"/>
<path fill-rule="evenodd" clip-rule="evenodd" d="M74.9458 28.34C79.3316 28.34 82.8869 24.7847 82.8869 20.3989C82.8869 16.0132 79.3316 12.4579 74.9458 12.4579C70.5601 12.4579 67.0047 16.0132 67.0047 20.3989C67.0047 24.7847 70.5601 28.34 74.9458 28.34ZM74.9458 31.3448C80.991 31.3448 85.8916 26.4441 85.8916 20.3989C85.8916 14.3537 80.991 9.45312 74.9458 9.45312C68.9006 9.45312 64 14.3537 64 20.3989C64 26.4441 68.9006 31.3448 74.9458 31.3448Z" fill="#0ACE60"/>
<path d="M110.271 20.8964C110.271 20.0721 110.94 19.4038 111.764 19.4038C112.588 19.4038 113.257 20.0721 113.257 20.8964V29.8521C113.257 30.6764 112.588 31.3447 111.764 31.3447C110.94 31.3447 110.271 30.6764 110.271 29.8521V20.8964Z" fill="#0ACE60"/>
<path fill-rule="evenodd" clip-rule="evenodd" d="M102.062 28.34C106.547 28.34 110.183 24.7847 110.183 20.3989C110.183 16.0132 106.547 12.4579 102.062 12.4579C97.5762 12.4579 93.94 16.0132 93.94 20.3989C93.94 24.7847 97.5762 28.34 102.062 28.34ZM102.062 31.3448C108.244 31.3448 113.256 26.4441 113.256 20.3989C113.256 14.3537 108.244 9.45312 102.062 9.45312C95.879 9.45312 90.867 14.3537 90.867 20.3989C90.867 26.4441 95.879 31.3448 102.062 31.3448Z" fill="#0ACE60"/>
<path d="M139.626 10.956C139.626 10.1262 140.406 9.45361 141.367 9.45361C142.329 9.45361 143.109 10.1262 143.109 10.956V29.8429C143.109 30.6726 142.329 31.3452 141.367 31.3452C140.406 31.3452 139.626 30.6726 139.626 29.8429V10.956Z" fill="#0ACE60"/>
<path d="M143.606 2.98527C143.606 4.08439 142.715 4.97541 141.616 4.97541C140.517 4.97541 139.626 4.08439 139.626 2.98527C139.626 1.88614 140.517 0.995117 141.616 0.995117C142.715 0.995117 143.606 1.88614 143.606 2.98527Z" fill="#0ACE60"/>
<path d="M126.343 31.3448C125.466 31.3448 124.59 31.2743 123.713 31.1334C122.837 31.0126 122.01 30.8214 121.233 30.5597C120.456 30.2778 119.759 29.9356 119.141 29.533C118.783 29.2915 118.534 28.9996 118.394 28.6574C118.255 28.3152 118.205 27.983 118.245 27.6609C118.305 27.3187 118.434 27.0268 118.633 26.7853C118.852 26.5236 119.121 26.3625 119.44 26.3021C119.759 26.2417 120.107 26.3323 120.486 26.5739C121.363 27.0973 122.289 27.4797 123.265 27.7213C124.241 27.9629 125.267 28.0837 126.343 28.0837C127.917 28.0837 129.062 27.822 129.779 27.2986C130.497 26.7551 130.855 26.0606 130.855 25.2151C130.855 24.5105 130.596 23.957 130.078 23.5544C129.58 23.1517 128.714 22.8196 127.478 22.5579L124.191 21.8634C122.299 21.4608 120.884 20.7864 119.948 19.8403C119.032 18.8741 118.573 17.6059 118.573 16.0357C118.573 15.0493 118.773 14.1535 119.171 13.3483C119.57 12.5431 120.127 11.8486 120.845 11.2648C121.582 10.6811 122.448 10.2382 123.444 9.93625C124.46 9.61417 125.576 9.45312 126.791 9.45312C127.986 9.45312 129.122 9.6041 130.198 9.90605C131.274 10.208 132.24 10.6509 133.096 11.2347C133.415 11.4561 133.624 11.7278 133.724 12.0499C133.843 12.372 133.873 12.6941 133.814 13.0162C133.754 13.3181 133.614 13.5798 133.395 13.8013C133.176 14.0227 132.897 14.1535 132.558 14.1938C132.24 14.2341 131.871 14.1334 131.453 13.8918C130.716 13.4691 129.969 13.1672 129.212 12.986C128.455 12.8048 127.638 12.7142 126.761 12.7142C125.845 12.7142 125.058 12.8451 124.401 13.1068C123.743 13.3685 123.235 13.7409 122.877 14.224C122.538 14.687 122.369 15.2406 122.369 15.8847C122.369 16.6094 122.608 17.1932 123.086 17.6361C123.564 18.0588 124.381 18.3909 125.536 18.6325L128.793 19.327C130.766 19.7497 132.23 20.414 133.186 21.3199C134.162 22.2258 134.65 23.4336 134.65 24.9433C134.65 25.9096 134.451 26.7853 134.053 27.5703C133.674 28.3554 133.116 29.0298 132.379 29.5934C131.662 30.1571 130.795 30.5899 129.779 30.8918C128.763 31.1938 127.618 31.3448 126.343 31.3448Z" fill="#0ACE60"/>
<path d="M156.693 31.3448C155.816 31.3448 154.94 31.2743 154.063 31.1334C153.187 31.0126 152.36 30.8214 151.583 30.5597C150.806 30.2778 150.109 29.9356 149.491 29.533C149.132 29.2915 148.883 28.9996 148.744 28.6574C148.605 28.3152 148.555 27.983 148.595 27.6609C148.654 27.3187 148.784 27.0268 148.983 26.7853C149.202 26.5236 149.471 26.3625 149.79 26.3021C150.109 26.2417 150.457 26.3323 150.836 26.5739C151.712 27.0973 152.639 27.4797 153.615 27.7213C154.591 27.9629 155.617 28.0837 156.693 28.0837C158.267 28.0837 159.412 27.822 160.129 27.2986C160.846 26.7551 161.205 26.0606 161.205 25.2151C161.205 24.5105 160.946 23.957 160.428 23.5544C159.93 23.1517 159.063 22.8196 157.828 22.5579L154.541 21.8634C152.649 21.4608 151.234 20.7864 150.298 19.8403C149.381 18.8741 148.923 17.6059 148.923 16.0357C148.923 15.0493 149.123 14.1535 149.521 13.3483C149.919 12.5431 150.477 11.8486 151.194 11.2648C151.931 10.6811 152.798 10.2382 153.794 9.93625C154.81 9.61417 155.926 9.45312 157.141 9.45312C158.336 9.45312 159.472 9.6041 160.548 9.90605C161.623 10.208 162.59 10.6509 163.446 11.2347C163.765 11.4561 163.974 11.7278 164.074 12.0499C164.193 12.372 164.223 12.6941 164.163 13.0162C164.104 13.3181 163.964 13.5798 163.745 13.8013C163.526 14.0227 163.247 14.1535 162.908 14.1938C162.59 14.2341 162.221 14.1334 161.803 13.8918C161.066 13.4691 160.318 13.1672 159.561 12.986C158.804 12.8048 157.988 12.7142 157.111 12.7142C156.195 12.7142 155.408 12.8451 154.75 13.1068C154.093 13.3685 153.585 13.7409 153.226 14.224C152.888 14.687 152.718 15.2406 152.718 15.8847C152.718 16.6094 152.957 17.1932 153.436 17.6361C153.914 18.0588 154.73 18.3909 155.886 18.6325L159.143 19.327C161.115 19.7497 162.58 20.414 163.536 21.3199C164.512 22.2258 165 23.4336 165 24.9433C165 25.9096 164.801 26.7853 164.402 27.5703C164.024 28.3554 163.466 29.0298 162.729 29.5934C162.012 30.1571 161.145 30.5899 160.129 30.8918C159.113 31.1938 157.968 31.3448 156.693 31.3448Z" fill="#0ACE60"/>
</svg>
