<svg width="20" height="20" viewBox="0 0 20 20" fill="none" xmlns="http://www.w3.org/2000/svg">
<path d="M14.9993 10.8327H10.8327V14.9993C10.8327 15.4577 10.4577 15.8327 9.99935 15.8327C9.54102 15.8327 9.16602 15.4577 9.16602 14.9993V10.8327H4.99935C4.54102 10.8327 4.16602 10.4577 4.16602 9.99935C4.16602 9.54102 4.54102 9.16602 4.99935 9.16602H9.16602V4.99935C9.16602 4.54102 9.54102 4.16602 9.99935 4.16602C10.4577 4.16602 10.8327 4.54102 10.8327 4.99935V9.16602H14.9993C15.4577 9.16602 15.8327 9.54102 15.8327 9.99935C15.8327 10.4577 15.4577 10.8327 14.9993 10.8327Z" fill="#0ACE60"/>
</svg>
