<svg width="43" height="30" viewBox="0 0 43 30" fill="none" xmlns="http://www.w3.org/2000/svg">
<rect x="0.5" y="0.5" width="41.5" height="29" rx="3.5" fill="white" stroke="#B2BCCA"/>
<path d="M24.072 14.6322C24.072 19.2616 20.3622 23.0144 15.786 23.0144C11.2098 23.0144 7.5 19.2616 7.5 14.6322C7.5 10.0028 11.2098 6.25 15.786 6.25C20.3622 6.25 24.072 10.0028 24.072 14.6322Z" fill="#ED0006"/>
<path d="M34.821 14.6322C34.821 19.2616 31.1113 23.0144 26.535 23.0144C21.9588 23.0144 18.249 19.2616 18.249 14.6322C18.249 10.0028 21.9588 6.25 26.535 6.25C31.1113 6.25 34.821 10.0028 34.821 14.6322Z" fill="#2F80ED"/>
<path fill-rule="evenodd" clip-rule="evenodd" d="M21.1612 8.25391C22.9428 9.79136 24.0725 12.0791 24.0725 14.6337C24.0725 17.1883 22.9428 19.476 21.1612 21.0134C19.3797 19.476 18.25 17.1883 18.25 14.6337C18.25 12.0791 19.3797 9.79136 21.1612 8.25391Z" fill="#6C6BBD"/>
</svg>
