<svg width="20" height="20" viewBox="0 0 20 20" fill="none" xmlns="http://www.w3.org/2000/svg">
<path d="M16.1917 10.818C16.225 10.5513 16.25 10.2846 16.25 10.0013C16.25 9.71797 16.225 9.4513 16.1917 9.18464L17.95 7.80964C18.1083 7.68464 18.15 7.45964 18.05 7.2763L16.3833 4.39297C16.3083 4.25964 16.1667 4.18464 16.0167 4.18464C15.9667 4.18464 15.9167 4.19297 15.875 4.20964L13.8 5.04297C13.3667 4.70964 12.9 4.43464 12.3917 4.2263L12.075 2.01797C12.05 1.81797 11.875 1.66797 11.6667 1.66797H8.33332C8.12499 1.66797 7.94999 1.81797 7.92499 2.01797L7.60832 4.2263C7.09999 4.43464 6.63332 4.71797 6.19999 5.04297L4.12499 4.20964C4.07499 4.19297 4.02499 4.18464 3.97499 4.18464C3.83332 4.18464 3.69166 4.25964 3.61666 4.39297L1.94999 7.2763C1.84165 7.45964 1.89165 7.68464 2.04999 7.80964L3.80832 9.18464C3.77499 9.4513 3.74999 9.7263 3.74999 10.0013C3.74999 10.2763 3.77499 10.5513 3.80832 10.818L2.04999 12.193C1.89165 12.318 1.84999 12.543 1.94999 12.7263L3.61666 15.6096C3.69166 15.743 3.83332 15.818 3.98332 15.818C4.03332 15.818 4.08332 15.8096 4.12499 15.793L6.19999 14.9596C6.63332 15.293 7.09999 15.568 7.60832 15.7763L7.92499 17.9846C7.94999 18.1846 8.12499 18.3346 8.33332 18.3346H11.6667C11.875 18.3346 12.05 18.1846 12.075 17.9846L12.3917 15.7763C12.9 15.568 13.3667 15.2846 13.8 14.9596L15.875 15.793C15.925 15.8096 15.975 15.818 16.025 15.818C16.1667 15.818 16.3083 15.743 16.3833 15.6096L18.05 12.7263C18.15 12.543 18.1083 12.318 17.95 12.193L16.1917 10.818V10.818ZM14.5417 9.39297C14.575 9.6513 14.5833 9.8263 14.5833 10.0013C14.5833 10.1763 14.5667 10.3596 14.5417 10.6096L14.425 11.5513L15.1667 12.1346L16.0667 12.8346L15.4833 13.843L14.425 13.418L13.5583 13.068L12.8083 13.6346C12.45 13.9013 12.1083 14.1013 11.7667 14.243L10.8833 14.6013L10.75 15.543L10.5833 16.668H9.41666L9.25832 15.543L9.12499 14.6013L8.24165 14.243C7.88332 14.093 7.54999 13.9013 7.21665 13.6513L6.45832 13.068L5.57499 13.4263L4.51666 13.8513L3.93332 12.843L4.83332 12.143L5.57499 11.5596L5.45832 10.618C5.43332 10.3596 5.41665 10.168 5.41665 10.0013C5.41665 9.83464 5.43332 9.64297 5.45832 9.39297L5.57499 8.4513L4.83332 7.86797L3.93332 7.16797L4.51666 6.15964L5.57499 6.58464L6.44165 6.93464L7.19165 6.36797C7.54999 6.1013 7.89165 5.9013 8.23332 5.75964L9.11665 5.4013L9.24999 4.45964L9.41666 3.33464H10.575L10.7333 4.45964L10.8667 5.4013L11.75 5.75964C12.1083 5.90964 12.4417 6.1013 12.775 6.3513L13.5333 6.93464L14.4167 6.5763L15.475 6.1513L16.0583 7.15964L15.1667 7.86797L14.425 8.4513L14.5417 9.39297ZM9.99999 6.66797C8.15832 6.66797 6.66665 8.15964 6.66665 10.0013C6.66665 11.843 8.15832 13.3346 9.99999 13.3346C11.8417 13.3346 13.3333 11.843 13.3333 10.0013C13.3333 8.15964 11.8417 6.66797 9.99999 6.66797ZM9.99999 11.668C9.08332 11.668 8.33332 10.918 8.33332 10.0013C8.33332 9.08464 9.08332 8.33464 9.99999 8.33464C10.9167 8.33464 11.6667 9.08464 11.6667 10.0013C11.6667 10.918 10.9167 11.668 9.99999 11.668Z" fill="black"/>
</svg>
