<svg width="16" height="16" viewBox="0 0 16 16" fill="none" xmlns="http://www.w3.org/2000/svg">
<path fill-rule="evenodd" clip-rule="evenodd" d="M0.666748 8.00033C0.666748 3.95024 3.94999 0.666992 8.00008 0.666992C12.0502 0.666992 15.3334 3.95024 15.3334 8.00033C15.3334 12.0504 12.0502 15.3337 8.00008 15.3337C3.94999 15.3337 0.666748 12.0504 0.666748 8.00033Z" fill="#08AD36"/>
<path fill-rule="evenodd" clip-rule="evenodd" d="M11.5405 5.3623C11.8009 5.62265 11.8009 6.04476 11.5405 6.30511L7.40248 10.6384C7.14213 10.8988 6.72002 10.8988 6.45967 10.6384L4.45967 8.63845C4.19932 8.3781 4.19932 7.95599 4.45967 7.69564C4.72002 7.43529 5.14213 7.43529 5.40248 7.69564L6.93107 9.22423L10.5977 5.3623C10.8581 5.10196 11.2802 5.10196 11.5405 5.3623Z" fill="white"/>
</svg>
