<svg width="43" height="30" viewBox="0 0 43 30" fill="none" xmlns="http://www.w3.org/2000/svg">
<path d="M0.5 4C0.5 1.79086 2.29086 0 4.5 0H39C41.2091 0 43 1.79086 43 4V26C43 28.2091 41.2091 30 39 30H4.5C2.29086 30 0.5 28.2091 0.5 26V4Z" fill="white"/>
<path fill-rule="evenodd" clip-rule="evenodd" d="M39 1H4.5C2.84315 1 1.5 2.34315 1.5 4V26C1.5 27.6569 2.84315 29 4.5 29H39C40.6569 29 42 27.6569 42 26V4C42 2.34315 40.6569 1 39 1ZM4.5 0C2.29086 0 0.5 1.79086 0.5 4V26C0.5 28.2091 2.29086 30 4.5 30H39C41.2091 30 43 28.2091 43 26V4C43 1.79086 41.2091 0 39 0H4.5Z" fill="#B2BCCA"/>
<path fill-rule="evenodd" clip-rule="evenodd" d="M21.9737 21.0384C20.4937 22.2859 18.5738 23.0391 16.4759 23.0391C11.7948 23.0391 8 19.2894 8 14.6641C8 10.0387 11.7948 6.28906 16.4759 6.28906C18.5738 6.28906 20.4937 7.04218 21.9737 8.28973C23.4538 7.04218 25.3737 6.28906 27.4716 6.28906C32.1527 6.28906 35.9474 10.0387 35.9474 14.6641C35.9474 19.2894 32.1527 23.0391 27.4716 23.0391C25.3737 23.0391 23.4538 22.2859 21.9737 21.0384Z" fill="#ED0006"/>
<path fill-rule="evenodd" clip-rule="evenodd" d="M21.9736 21.0384C23.7961 19.5023 24.9517 17.2165 24.9517 14.6641C24.9517 12.1116 23.7961 9.82581 21.9736 8.28968C23.4537 7.04216 25.3735 6.28906 27.4714 6.28906C32.1525 6.28906 35.9473 10.0387 35.9473 14.6641C35.9473 19.2894 32.1525 23.0391 27.4714 23.0391C25.3735 23.0391 23.4537 22.286 21.9736 21.0384Z" fill="#F9A000"/>
<path fill-rule="evenodd" clip-rule="evenodd" d="M21.9741 21.0377C23.7965 19.5015 24.9521 17.2158 24.9521 14.6634C24.9521 12.1109 23.7965 9.82519 21.9741 8.28906C20.1517 9.82519 18.9961 12.1109 18.9961 14.6634C18.9961 17.2158 20.1517 19.5015 21.9741 21.0377Z" fill="#FD6020"/>
</svg>
