<svg width="12" height="12" viewBox="0 0 12 12" fill="none" xmlns="http://www.w3.org/2000/svg">
<path d="M6 1.5C6.825 1.5 7.5 2.175 7.5 3C7.5 3.825 6.825 4.5 6 4.5C5.175 4.5 4.5 3.825 4.5 3C4.5 2.175 5.175 1.5 6 1.5ZM6 8.25C8.025 8.25 10.35 9.2175 10.5 9.75V10.5H1.5V9.7575C1.65 9.2175 3.975 8.25 6 8.25V8.25ZM6 0C4.3425 0 3 1.3425 3 3C3 4.6575 4.3425 6 6 6C7.6575 6 9 4.6575 9 3C9 1.3425 7.6575 0 6 0V0ZM6 6.75C3.9975 6.75 0 7.755 0 9.75V12H12V9.75C12 7.755 8.0025 6.75 6 6.75V6.75Z" fill="#0C1B80"/>
</svg>
