<svg width="43" height="30" viewBox="0 0 43 30" fill="none" xmlns="http://www.w3.org/2000/svg">
<rect x="1" y="0.5" width="41.5" height="29" rx="3.5" fill="white" stroke="#B2BCCA"/>
<path d="M23.5 29L42.5 23.25V26C42.5 27.6569 41.1569 29 39.5 29H23.5Z" fill="#FD6020"/>
<path fill-rule="evenodd" clip-rule="evenodd" d="M37.2421 11.3886C38.5487 11.3886 39.2673 11.993 39.2673 13.1347C39.3327 14.0078 38.7447 14.7466 37.9607 14.8809L39.7246 17.3657H38.3527L36.8501 14.948H36.7194V17.3657H35.6088V11.3886H37.2421ZM36.7195 14.1421H37.0461C37.7647 14.1421 38.0914 13.8063 38.0914 13.2019C38.0914 12.6646 37.7647 12.3288 37.0461 12.3288H36.7195V14.1421ZM31.7544 17.3657H34.8903V16.3584H32.865V14.7466H34.8249V13.7392H32.865V12.396H34.8903V11.3886H31.7544V17.3657ZM28.4877 15.4181L26.9851 11.3886H25.8092L28.2264 17.5001H28.8144L31.2316 11.3886H30.0557L28.4877 15.4181ZM15.2255 14.4106C15.2255 16.0896 16.5321 17.4999 18.1654 17.4999C18.688 17.4999 19.1454 17.3656 19.6027 17.1641V15.821C19.276 16.2239 18.8187 16.4926 18.2961 16.4926C17.2508 16.4926 16.4015 15.6867 16.4015 14.6121V14.4778C16.3361 13.4033 17.1854 12.463 18.2307 12.3959C18.7534 12.3959 19.276 12.6645 19.6027 13.0675V11.7243C19.2107 11.4557 18.688 11.3885 18.2307 11.3885C16.5321 11.2542 15.2255 12.6645 15.2255 14.4106ZM13.2003 13.672C12.547 13.4033 12.351 13.269 12.351 12.9332C12.4163 12.5303 12.743 12.1945 13.135 12.2616C13.4616 12.2616 13.7883 12.4631 14.0496 12.7317L14.6376 11.9258C14.1803 11.5229 13.5923 11.2542 13.0043 11.2542C12.0897 11.1871 11.3057 11.9258 11.2404 12.8661V12.9332C11.2404 13.7391 11.567 14.2092 12.6123 14.545C12.8736 14.6122 13.135 14.7465 13.3963 14.8808C13.5923 15.0151 13.7229 15.2166 13.7229 15.4852C13.7229 15.9554 13.331 16.3583 12.939 16.3583H12.8736C12.351 16.3583 11.8937 16.0225 11.6977 15.5524L10.9791 16.2911C11.371 17.0299 12.155 17.4328 12.939 17.4328C13.9843 17.5 14.8336 16.6941 14.8989 15.6196V15.4181C14.8336 14.6122 14.5069 14.2092 13.2003 13.672ZM9.41112 17.3657H10.5217V11.3886H9.41112V17.3657ZM4.25 11.3886H5.88327H6.20993C7.77787 11.4558 9.01916 12.799 8.95382 14.4108C8.95382 15.2838 8.56184 16.0897 7.90853 16.6942C7.32055 17.1643 6.60191 17.4329 5.88327 17.3658H4.25V11.3886ZM5.68732 16.3584C6.20997 16.4256 6.79795 16.2241 7.18993 15.8883C7.58192 15.4854 7.77791 14.9481 7.77791 14.3437C7.77791 13.8064 7.58192 13.2691 7.18993 12.8662C6.79795 12.5304 6.20997 12.3289 5.68732 12.3961H5.36067V16.3584H5.68732Z" fill="black"/>
<path fill-rule="evenodd" clip-rule="evenodd" d="M22.9349 11.25C21.3016 11.25 19.9297 12.5932 19.9297 14.3393C19.9297 16.0183 21.2363 17.4286 22.9349 17.4958C24.6335 17.5629 25.9401 16.1526 26.0055 14.4065C25.9401 12.6603 24.6335 11.25 22.9349 11.25V11.25Z" fill="#FD6020"/>
</svg>
