<svg width="112" height="22" viewBox="0 0 112 22" fill="none" xmlns="http://www.w3.org/2000/svg">
<path fill-rule="evenodd" clip-rule="evenodd" d="M28.5825 5.72424C29.163 6.91657 29.501 8.20212 29.5876 9.50756C29.692 11.081 28.1282 12.074 26.5873 11.7389C25.0464 11.4037 24.1521 9.77739 23.5027 8.34037C23.4851 8.30143 23.4669 8.26269 23.4482 8.22418C23.0087 7.32159 22.2783 6.59317 21.3745 6.15618C20.4707 5.7192 19.4461 5.59908 18.4658 5.81518C17.4854 6.03127 16.6063 6.571 15.97 7.34746C15.3337 8.12392 14.9772 9.09194 14.9579 10.0956C14.9386 11.0993 15.2577 12.0803 15.8637 12.8807C16.4697 13.681 17.3274 14.2541 18.2988 14.5077C18.3402 14.5185 18.3818 14.5287 18.4234 14.5383C19.96 14.8927 21.7303 15.4501 22.3616 16.8951C22.993 18.3401 22.3266 20.0686 20.7633 20.2754C19.4663 20.4469 18.1394 20.3681 16.8562 20.0331C14.6443 19.4556 12.6911 18.1505 11.311 16.328C11.2787 16.2854 11.2144 16.2854 11.1821 16.328C10.1368 17.7084 8.74686 18.8121 7.13133 19.5159C5.34154 20.2956 3.38082 20.5381 1.48216 20.2394C0.268612 20.0484 -0.295791 18.7304 0.15367 17.5871C0.603132 16.4437 1.91367 15.9304 3.14204 15.9139C3.89673 15.9037 4.64926 15.7446 5.35464 15.4374C6.74861 14.8301 7.84426 13.694 8.40056 12.2789C8.95686 10.8638 8.92824 9.28574 8.321 7.89177C8.01372 7.18639 7.57102 6.5574 7.02528 6.03603C6.13701 5.18742 5.52692 3.91902 5.97638 2.77571C6.42584 1.63241 7.73672 1.05157 8.75542 1.73816C9.57732 2.29211 10.3133 2.96271 10.9403 3.72778C11.0975 3.91962 11.3959 3.91963 11.5531 3.72779C13.0022 1.95963 15.0041 0.730564 17.2365 0.238476C19.469 -0.253614 21.8021 0.0199108 23.8602 1.01501C25.9184 2.01011 27.5817 3.66888 28.5825 5.72424Z" fill="#033417"/>
<path d="M43.4424 1.03427C43.4424 0.46306 43.8961 0 44.4556 0C45.0152 0 45.4688 0.46306 45.4688 1.03427V13.1501C45.4688 13.7213 45.0152 14.1843 44.4556 14.1843C43.8961 14.1843 43.4424 13.7213 43.4424 13.1501V1.03427Z" fill="#0ACE60"/>
<path fill-rule="evenodd" clip-rule="evenodd" d="M50.8723 19.2382C53.8493 19.2382 56.2626 16.8248 56.2626 13.8479C56.2626 10.8709 53.8493 8.45755 50.8723 8.45755C47.8953 8.45755 45.482 10.8709 45.482 13.8479C45.482 16.8248 47.8953 19.2382 50.8723 19.2382ZM50.8723 21.2777C54.9757 21.2777 58.3022 17.9513 58.3022 13.8479C58.3022 9.74444 54.9757 6.41797 50.8723 6.41797C46.7689 6.41797 43.4424 9.74444 43.4424 13.8479C43.4424 17.9513 46.7689 21.2777 50.8723 21.2777Z" fill="#0ACE60"/>
<path d="M74.8508 14.185C74.8508 13.6255 75.3044 13.1719 75.8639 13.1719C76.4235 13.1719 76.8771 13.6255 76.8771 14.185V20.264C76.8771 20.8236 76.4235 21.2772 75.8639 21.2772C75.3044 21.2772 74.8508 20.8236 74.8508 20.264V14.185Z" fill="#0ACE60"/>
<path fill-rule="evenodd" clip-rule="evenodd" d="M69.2781 19.2382C72.3228 19.2382 74.7909 16.8248 74.7909 13.8479C74.7909 10.8709 72.3228 8.45755 69.2781 8.45755C66.2335 8.45755 63.7653 10.8709 63.7653 13.8479C63.7653 16.8248 66.2335 19.2382 69.2781 19.2382ZM69.2781 21.2777C73.4748 21.2777 76.8769 17.9513 76.8769 13.8479C76.8769 9.74444 73.4748 6.41797 69.2781 6.41797C65.0815 6.41797 61.6794 9.74444 61.6794 13.8479C61.6794 17.9513 65.0815 21.2777 69.2781 21.2777Z" fill="#0ACE60"/>
<path d="M94.7765 7.43776C94.7765 6.87454 95.3057 6.41797 95.9585 6.41797C96.6113 6.41797 97.1405 6.87454 97.1405 7.43776V20.258C97.1405 20.8212 96.6113 21.2777 95.9585 21.2777C95.3057 21.2777 94.7765 20.8212 94.7765 20.258V7.43776Z" fill="#0ACE60"/>
<path d="M97.4782 2.02667C97.4782 2.77274 96.8734 3.37756 96.1273 3.37756C95.3812 3.37756 94.7764 2.77274 94.7764 2.02667C94.7764 1.28059 95.3812 0.675781 96.1273 0.675781C96.8734 0.675781 97.4782 1.28059 97.4782 2.02667Z" fill="#0ACE60"/>
<path d="M85.76 21.2777C85.165 21.2777 84.57 21.2299 83.975 21.1343C83.38 21.0523 82.8189 20.9225 82.2915 20.7448C81.7641 20.5535 81.2908 20.3212 80.8716 20.048C80.6282 19.884 80.4592 19.6859 80.3645 19.4536C80.2699 19.2213 80.2361 18.9958 80.2631 18.7772C80.3037 18.5449 80.3916 18.3468 80.5268 18.1828C80.6755 18.0052 80.8581 17.8959 81.0745 17.8549C81.2908 17.8139 81.5275 17.8754 81.7844 18.0393C82.3794 18.3946 83.0082 18.6542 83.6708 18.8182C84.3334 18.9822 85.0298 19.0641 85.76 19.0641C86.8283 19.0641 87.6058 18.8865 88.0927 18.5312C88.5795 18.1623 88.8229 17.6909 88.8229 17.117C88.8229 16.6388 88.6471 16.263 88.2955 15.9897C87.9574 15.7164 87.3692 15.491 86.5308 15.3133L84.2996 14.8419C83.0149 14.5686 82.0548 14.1109 81.4193 13.4687C80.7972 12.8128 80.4862 11.952 80.4862 10.8861C80.4862 10.2166 80.6215 9.60855 80.8919 9.06198C81.1624 8.51542 81.541 8.044 82.0278 7.64774C82.5281 7.25148 83.1164 6.95087 83.7925 6.74591C84.4821 6.52728 85.2394 6.41797 86.0643 6.41797C86.8756 6.41797 87.6464 6.52045 88.3766 6.72541C89.1068 6.93037 89.7627 7.23099 90.3442 7.62725C90.5605 7.77755 90.7025 7.96202 90.7701 8.18065C90.8513 8.39927 90.8715 8.6179 90.831 8.83653C90.7904 9.04149 90.6957 9.21912 90.547 9.36943C90.3982 9.51973 90.2089 9.60855 89.979 9.63588C89.7627 9.66321 89.5125 9.59488 89.2285 9.43092C88.7282 9.14397 88.2211 8.93901 87.7073 8.81603C87.1934 8.69305 86.639 8.63156 86.044 8.63156C85.422 8.63156 84.8878 8.72038 84.4416 8.89801C83.9953 9.07565 83.6505 9.32843 83.4071 9.65637C83.1772 9.97065 83.0623 10.3464 83.0623 10.7837C83.0623 11.2756 83.2245 11.6718 83.5491 11.9724C83.8736 12.2594 84.428 12.4849 85.2124 12.6488L87.4233 13.1202C88.762 13.4072 89.7559 13.8581 90.405 14.473C91.0676 15.0879 91.3989 15.9077 91.3989 16.9325C91.3989 17.5884 91.2637 18.1828 90.9932 18.7157C90.7363 19.2486 90.3577 19.7064 89.8573 20.089C89.3705 20.4716 88.7823 20.7653 88.0927 20.9703C87.403 21.1753 86.6255 21.2777 85.76 21.2777Z" fill="#0ACE60"/>
<path d="M106.361 21.2777C105.766 21.2777 105.171 21.2299 104.576 21.1343C103.981 21.0523 103.42 20.9225 102.893 20.7448C102.365 20.5535 101.892 20.3212 101.473 20.048C101.229 19.884 101.06 19.6859 100.966 19.4536C100.871 19.2213 100.837 18.9958 100.864 18.7772C100.905 18.5449 100.993 18.3468 101.128 18.1828C101.277 18.0052 101.459 17.8959 101.676 17.8549C101.892 17.8139 102.129 17.8754 102.385 18.0393C102.98 18.3946 103.609 18.6542 104.272 18.8182C104.934 18.9822 105.631 19.0641 106.361 19.0641C107.429 19.0641 108.207 18.8865 108.694 18.5312C109.181 18.1623 109.424 17.6909 109.424 17.117C109.424 16.6388 109.248 16.263 108.897 15.9897C108.559 15.7164 107.97 15.491 107.132 15.3133L104.901 14.8419C103.616 14.5686 102.656 14.1109 102.02 13.4687C101.398 12.8128 101.087 11.952 101.087 10.8861C101.087 10.2166 101.223 9.60855 101.493 9.06198C101.763 8.51542 102.142 8.044 102.629 7.64774C103.129 7.25148 103.717 6.95087 104.394 6.74591C105.083 6.52728 105.84 6.41797 106.665 6.41797C107.477 6.41797 108.247 6.52045 108.978 6.72541C109.708 6.93037 110.364 7.23099 110.945 7.62725C111.162 7.77755 111.304 7.96202 111.371 8.18065C111.452 8.39927 111.473 8.6179 111.432 8.83653C111.391 9.04149 111.297 9.21912 111.148 9.36943C110.999 9.51973 110.81 9.60855 110.58 9.63588C110.364 9.66321 110.114 9.59488 109.83 9.43092C109.329 9.14397 108.822 8.93901 108.308 8.81603C107.794 8.69305 107.24 8.63156 106.645 8.63156C106.023 8.63156 105.489 8.72038 105.043 8.89801C104.596 9.07565 104.252 9.32843 104.008 9.65637C103.778 9.97065 103.663 10.3464 103.663 10.7837C103.663 11.2756 103.826 11.6718 104.15 11.9724C104.475 12.2594 105.029 12.4849 105.813 12.6488L108.024 13.1202C109.363 13.4072 110.357 13.8581 111.006 14.473C111.669 15.0879 112 15.9077 112 16.9325C112 17.5884 111.865 18.1828 111.594 18.7157C111.337 19.2486 110.959 19.7064 110.458 20.089C109.972 20.4716 109.383 20.7653 108.694 20.9703C108.004 21.1753 107.227 21.2777 106.361 21.2777Z" fill="#0ACE60"/>
</svg>
