<svg width="20" height="20" viewBox="0 0 20 20" fill="#0ACE5F" xmlns="http://www.w3.org/2000/svg">
<path d="M10 1.66797C5.40002 1.66797 1.66669 5.4013 1.66669 10.0013C1.66669 14.6013 5.40002 18.3346 10 18.3346C14.6 18.3346 18.3334 14.6013 18.3334 10.0013C18.3334 5.4013 14.6 1.66797 10 1.66797ZM10 16.668C6.32502 16.668 3.33335 13.6763 3.33335 10.0013C3.33335 6.3263 6.32502 3.33464 10 3.33464C13.675 3.33464 16.6667 6.3263 16.6667 10.0013C16.6667 13.6763 13.675 16.668 10 16.668ZM10.2584 9.28464C8.78335 8.90964 8.30835 8.5013 8.30835 7.89297C8.30835 7.19297 8.96669 6.7013 10.0584 6.7013C11.2084 6.7013 11.6417 7.2513 11.675 8.06797H13.1C13.0584 6.9513 12.375 5.9263 11.025 5.59297V4.16797H9.08335V5.5763C7.82502 5.84297 6.81669 6.65964 6.81669 7.91797C6.81669 9.40964 8.05835 10.1596 9.86669 10.593C11.4917 10.9763 11.8167 11.5513 11.8167 12.1513C11.8167 12.593 11.4917 13.3096 10.0667 13.3096C8.73335 13.3096 8.20835 12.7096 8.13335 11.943H6.70002C6.78335 13.3596 7.83335 14.1596 9.08335 14.418V15.8346H11.0334V14.443C12.3 14.2013 13.3 13.4763 13.3084 12.1346C13.3 10.3013 11.725 9.66797 10.2584 9.28464Z" fill="#0ACE5F"/>
</svg>
