<svg width="28" height="28" viewBox="0 0 28 28" fill="none" xmlns="http://www.w3.org/2000/svg">
<circle cx="14" cy="14" r="13.5" stroke="#0ACE5F"/>
<path d="M18.5 11H17.75V9.5C17.75 7.43 16.07 5.75 14 5.75C11.93 5.75 10.25 7.43 10.25 9.5V11H9.5C8.675 11 8 11.675 8 12.5V20C8 20.825 8.675 21.5 9.5 21.5H18.5C19.325 21.5 20 20.825 20 20V12.5C20 11.675 19.325 11 18.5 11ZM11.75 9.5C11.75 8.255 12.755 7.25 14 7.25C15.245 7.25 16.25 8.255 16.25 9.5V11H11.75V9.5ZM18.5 20H9.5V12.5H18.5V20ZM14 17.75C14.825 17.75 15.5 17.075 15.5 16.25C15.5 15.425 14.825 14.75 14 14.75C13.175 14.75 12.5 15.425 12.5 16.25C12.5 17.075 13.175 17.75 14 17.75Z" fill="#0ACE5F"/>
</svg>
