<svg width="52" height="52" viewBox="0 0 52 52" fill="none" xmlns="http://www.w3.org/2000/svg">
<path d="M26 0L50.7275 17.9656L41.2824 47.0344H10.7176L1.27253 17.9656L26 0Z" fill="#0ACE5F"/>
<rect width="24" height="24" transform="translate(14 14)" fill="#0ACE5F"/>
<path d="M28 20V18H24V20H28ZM18 22V33H34V22H18ZM34 20C35.11 20 36 20.89 36 22V33C36 34.11 35.11 35 34 35H18C16.89 35 16 34.11 16 33L16.01 22C16.01 20.89 16.89 20 18 20H22V18C22 16.89 22.89 16 24 16H28C29.11 16 30 16.89 30 18V20H34Z" fill="white"/>
</svg>
