<svg width="52" height="52" viewBox="0 0 52 52" fill="none" xmlns="http://www.w3.org/2000/svg">
<path d="M26 0L50.7275 17.9656L41.2824 47.0344H10.7176L1.27253 17.9656L26 0Z" fill="#0ACE5F"/>
<path d="M26 20C27.1 20 28 20.9 28 22C28 23.1 27.1 24 26 24C24.9 24 24 23.1 24 22C24 20.9 24.9 20 26 20ZM26 29C28.7 29 31.8 30.29 32 31V32H20V31.01C20.2 30.29 23.3 29 26 29ZM26 18C23.79 18 22 19.79 22 22C22 24.21 23.79 26 26 26C28.21 26 30 24.21 30 22C30 19.79 28.21 18 26 18ZM26 27C23.33 27 18 28.34 18 31V34H34V31C34 28.34 28.67 27 26 27Z" fill="white"/>
</svg>
