<svg width="16" height="18" viewBox="0 0 16 18" fill="none" xmlns="http://www.w3.org/2000/svg">
<path d="M3.83333 12.4987H9.66667V14.1654H3.83333V12.4987ZM3.83333 9.16536H12.1667V10.832H3.83333V9.16536ZM3.83333 5.83203H12.1667V7.4987H3.83333V5.83203ZM13.8333 2.4987H10.35C10 1.53203 9.08333 0.832031 8 0.832031C6.91667 0.832031 6 1.53203 5.65 2.4987H2.16667C2.05 2.4987 1.94167 2.50703 1.83333 2.53203C1.50833 2.5987 1.21667 2.76536 0.991667 2.99036C0.841667 3.14036 0.716667 3.3237 0.633333 3.5237C0.55 3.71536 0.5 3.93203 0.5 4.16536V15.832C0.5 16.057 0.55 16.282 0.633333 16.482C0.716667 16.682 0.841667 16.857 0.991667 17.0154C1.21667 17.2404 1.50833 17.407 1.83333 17.4737C1.94167 17.4904 2.05 17.4987 2.16667 17.4987H13.8333C14.75 17.4987 15.5 16.7487 15.5 15.832V4.16536C15.5 3.2487 14.75 2.4987 13.8333 2.4987ZM8 2.29036C8.34167 2.29036 8.625 2.5737 8.625 2.91536C8.625 3.25703 8.34167 3.54036 8 3.54036C7.65833 3.54036 7.375 3.25703 7.375 2.91536C7.375 2.5737 7.65833 2.29036 8 2.29036ZM13.8333 15.832H2.16667V4.16536H13.8333V15.832Z" fill="black"/>
</svg>
