<svg width="36" height="38" viewBox="0 0 36 38" fill="none" xmlns="http://www.w3.org/2000/svg">
<rect width="36" height="38" rx="10" fill="#E9EBF1"/>
<mask id="mask0_2618_40364" style="mask-type:alpha" maskUnits="userSpaceOnUse" x="0" y="0" width="36" height="38">
<rect width="36" height="38" rx="10" fill="white"/>
</mask>
<g mask="url(#mask0_2618_40364)">
<mask id="mask1_2618_40364" style="mask-type:alpha" maskUnits="userSpaceOnUse" x="-85" y="-114" width="264" height="158">
<path fill-rule="evenodd" clip-rule="evenodd" d="M-84.75 -114H178.5V43.5417H-84.75V-114Z" fill="white"/>
</mask>
<g mask="url(#mask1_2618_40364)">
<path fill-rule="evenodd" clip-rule="evenodd" d="M180 46.7568V58.5833H-84V-128.25H-58.1702C-55.6816 -127.26 -53.2528 -126.094 -50.9085 -124.767C-35.4451 -116.016 -23.7059 -100.289 -18.8448 -82.416C-14.6067 -66.8342 -15.4445 -50.2845 -13.9485 -34.1421C-12.4525 -18.0034 -7.88704 -0.930557 4.09504 9.12856C13.761 17.2408 26.7638 19.4455 39.0803 18.9747C51.3933 18.5001 63.5267 15.649 75.8256 14.8681C94.8125 13.6574 114.063 17.4763 131.354 25.8838C145.571 32.7966 158.746 42.8445 174.111 45.9347C176.061 46.3271 178.029 46.5998 180 46.7568Z" fill="#FFFFFE"/>
<path fill-rule="evenodd" clip-rule="evenodd" d="M180 -128.25V7.91667C179.683 7.81982 179.37 7.71553 179.06 7.60378C170.558 4.58662 163.425 -2.54652 160.187 -11.3968C156.239 -22.1841 157.953 -34.7667 153.107 -45.1368C148.015 -56.0432 136.642 -62.1707 125.395 -64.6998C114.152 -67.229 102.5 -66.905 91.1583 -68.8717C71.8282 -72.2204 53.6101 -82.4154 40.1146 -97.4415C33.8824 -104.377 28.544 -112.531 26.3938 -121.828C25.9082 -123.922 25.6091 -126.082 25.5 -128.25H180Z" fill="#FFFFFE"/>
</g>
<mask id="mask2_2618_40364" style="mask-type:alpha" maskUnits="userSpaceOnUse" x="-76" y="-114" width="203" height="117">
<path fill-rule="evenodd" clip-rule="evenodd" d="M-75.75 -114H126.75V2.375H-75.75V-114Z" fill="white"/>
</mask>
<g mask="url(#mask2_2618_40364)">
</g>
<mask id="mask3_2618_40364" style="mask-type:alpha" maskUnits="userSpaceOnUse" x="-23" y="-94" width="114" height="138">
<path fill-rule="evenodd" clip-rule="evenodd" d="M-22.5 -93.4189H90.75V43.5394H-22.5V-93.4189Z" fill="white"/>
</mask>
<g mask="url(#mask3_2618_40364)">
<path fill-rule="evenodd" clip-rule="evenodd" d="M29.2554 32.7648C23.5893 22.7447 13.52 17.9789 4.87846 17.4469C-5.11658 16.8326 -12.392 25.1934 -17.3988 34.0498C-20.2054 39.016 -22.4866 44.9113 -22.5 51.5605C-22.5052 54.3784 -21.911 57.5049 -20.5818 60.1324C-19.1805 62.9024 -17.0104 64.9898 -14.7985 66.6529C-9.43736 70.683 -3.11258 72.4448 2.64752 73.2939C8.56982 74.1664 14.1776 73.3414 19.1408 70.3948C24.4632 67.2334 28.3551 61.7194 30.5329 54.8959C32.6917 48.1332 33.3641 40.0313 29.2554 32.7648" fill="#FDC748"/>
</g>
<path fill-rule="evenodd" clip-rule="evenodd" d="M5.22257 23.3142C5.2213 23.3088 5.22002 23.3027 5.21811 23.295C5.20537 23.2482 5.19198 23.2022 5.17222 23.1623C5.16267 23.1416 5.14673 23.127 5.1359 23.1101C5.11805 23.0864 5.10403 23.061 5.08045 23.0411C5.04349 23.0089 4.99632 22.9843 4.94151 22.9759C4.90455 22.9713 4.87013 22.9652 4.83508 22.9598C4.64197 22.9291 4.53618 23.3042 4.52088 23.5144C4.51578 23.5942 4.50877 23.6748 4.50367 23.7523C4.46097 24.3108 4.79875 24.8447 5.09256 24.3384C5.11678 24.2977 5.13972 24.2325 5.16139 24.1612C5.16458 24.1673 5.16458 24.1742 5.16585 24.1796C5.1888 24.1013 5.21238 23.987 5.22958 23.8574C5.25635 23.6748 5.25954 23.4792 5.22257 23.3142Z" fill="#FFF9E0"/>
<path fill-rule="evenodd" clip-rule="evenodd" d="M5.73011 27.004C5.50158 26.691 5.29508 27.3113 5.3061 27.4673C5.31436 27.5912 5.27251 27.7073 5.25654 27.8239C5.23782 27.9705 5.25323 28.2346 5.38374 28.3597C5.39861 28.3728 5.41513 28.3896 5.43055 28.4043C5.79894 28.7567 5.99497 28.045 5.99993 27.7824C6.00323 27.5245 5.892 27.2246 5.73011 27.004Z" fill="#FFF9E0"/>
<path fill-rule="evenodd" clip-rule="evenodd" d="M2.82075 29.4442C2.49836 28.8937 2.2369 29.991 2.25051 30.2888C2.25938 30.5224 2.3422 30.8691 2.53622 30.8752C2.64802 30.879 2.72847 30.7859 2.79117 30.6622C2.95207 30.5858 3.03607 30.2674 2.98519 30.0017C2.9497 29.8199 2.92663 29.626 2.82075 29.4442Z" fill="#FFF9E0"/>
<path fill-rule="evenodd" clip-rule="evenodd" d="M3.94077 32.6651C3.94883 32.6511 3.9569 32.6379 3.9655 32.626C3.74994 32.8374 3.66018 33.4888 3.86605 33.8654C3.87734 33.8919 3.89185 33.9128 3.91121 33.9302C4.24233 34.3034 4.46648 33.6492 4.49605 33.2572C4.53959 32.6909 4.21492 32.1497 3.94077 32.6651Z" fill="#FFF9E0"/>
<path fill-rule="evenodd" clip-rule="evenodd" d="M14.9242 26.9491C14.0777 27.1531 13.923 28.7453 15.0739 28.468C15.923 28.2659 16.0777 26.6727 14.9242 26.9491Z" fill="#FFF9E0"/>
<path fill-rule="evenodd" clip-rule="evenodd" d="M15.1195 30.8751C14.6931 30.8677 14.4018 31.1864 14.3109 31.4366C14.3078 31.4422 14.3055 31.4473 14.3047 31.4529C14.2076 31.7203 14.1625 32.447 14.8616 32.4582C15.4862 32.4689 15.7977 31.8622 15.7441 31.4837C15.7417 31.4776 15.741 31.4711 15.741 31.4669C15.7076 31.2312 15.5491 30.8821 15.1195 30.8751Z" fill="#FFF9E0"/>
<path fill-rule="evenodd" clip-rule="evenodd" d="M14.6877 29.5046C14.2556 29.0081 13.7599 29.4992 13.6147 29.7831C13.5996 29.8098 13.5845 29.8377 13.5719 29.8661C13.4587 30.0862 13.4545 30.491 13.7414 30.7053C14.0132 30.905 14.165 30.8718 14.4771 30.875C14.9847 30.8782 15.1357 30.2875 14.8731 29.9775C14.837 29.8157 14.816 29.6561 14.6877 29.5046Z" fill="#FFF9E0"/>
<path fill-rule="evenodd" clip-rule="evenodd" d="M13.6666 24.5495C13.564 24.598 13.5446 24.9737 13.6856 24.9084C13.7868 24.8599 13.8072 24.4846 13.6666 24.5495Z" fill="#FFF9E0"/>
<path fill-rule="evenodd" clip-rule="evenodd" d="M9.96232 19.8501C9.69622 19.423 9.68356 21.4985 9.90573 21.23C9.90889 21.2404 9.90924 21.2432 9.91451 21.2601C10.0386 21.6985 10.136 20.7635 10.111 20.5016C10.0822 20.1974 10.0572 20.0013 9.96232 19.8501Z" fill="#FFF9E0"/>
<path fill-rule="evenodd" clip-rule="evenodd" d="M33.7487 24.9593C33.8089 28.0061 31.7456 31.2392 28.4925 33.1965C24.9722 35.3141 21.0525 35.3814 18.0078 33.3753C15.7104 31.8616 14.3064 29.3008 14.2517 26.5243C14.2082 24.3347 15.0127 22.2616 16.5169 20.6868C19.8186 17.2322 25.4348 16.3978 29.581 18.7466C32.9617 20.6608 33.7135 23.1815 33.7487 24.9589V24.9593Z" fill="#C418E6"/>
<path fill-rule="evenodd" clip-rule="evenodd" d="M12.7521 26.7571C12.8197 30.1242 14.544 33.2263 17.3638 35.0552C21.0267 37.4302 25.7116 37.3683 29.8958 34.8903C33.7796 32.5907 36.2414 28.7244 36.1675 25.0424C36.1313 23.2273 35.4171 19.8187 31.0437 17.381C26.1287 14.6407 19.4668 15.6171 15.5486 19.6526C13.6916 21.5665 12.6985 24.0895 12.7521 26.7571ZM15.1156 26.706C15.0779 24.819 15.7499 22.9086 17.2112 21.4023C20.4315 18.0859 25.9587 17.338 29.9279 19.5503C32.6324 21.0577 33.763 23.0558 33.804 25.0936C33.9219 30.9487 25.0424 37.1353 18.6144 32.9676C16.3876 31.5236 15.1643 29.1336 15.1156 26.706Z" fill="#FFFFFE"/>
<path fill-rule="evenodd" clip-rule="evenodd" d="M19.6336 28.2483C19.9217 28.6158 20.38 28.5425 20.6841 28.2771C20.9245 28.0655 21.1533 27.5351 20.8662 27.1695C20.5781 26.802 20.1206 26.8743 19.8163 27.1397C19.5756 27.3513 19.3468 27.8818 19.6336 28.2483Z" fill="#FFF9E0"/>
<path fill-rule="evenodd" clip-rule="evenodd" d="M19.6332 24.2891C19.9211 24.6559 20.3798 24.5847 20.6834 24.3176C20.9242 24.1073 21.1536 23.5775 20.8661 23.21C20.5782 22.8426 20.1195 22.9157 19.8163 23.1816C19.5759 23.3931 19.3469 23.9229 19.6332 24.2891Z" fill="#FFF9E0"/>
<path fill-rule="evenodd" clip-rule="evenodd" d="M19.5162 23.7437C19.5327 23.8136 19.5488 23.8842 19.5637 23.9555C19.7295 24.6904 20.3603 24.6344 20.712 24.3271C21.1618 23.9382 21.0526 23.269 20.6066 23.0655C20.5425 23.0357 20.4785 23.0067 20.4144 22.9783C20.211 22.8856 19.374 23.1056 19.5162 23.7437Z" fill="#FFF9E0"/>
<path fill-rule="evenodd" clip-rule="evenodd" d="M21.7894 25.5855C21.7804 25.6087 21.7722 25.6289 21.7633 25.6502C21.7192 25.7528 21.7924 25.8249 21.8715 25.8921C21.9163 25.9299 21.9604 25.9653 22.0036 26.002C22.4471 26.3732 23.7796 25.8163 23.0211 25.4658C22.8106 25.3675 22.6427 25.3291 22.3986 25.3333C22.1813 25.3376 21.8745 25.3913 21.7894 25.5855Z" fill="#FFF9E0"/>
<mask id="mask4_2618_40364" style="mask-type:alpha" maskUnits="userSpaceOnUse" x="27" y="22" width="42" height="22">
<path fill-rule="evenodd" clip-rule="evenodd" d="M27 22.9561H69V43.5394H27V22.9561Z" fill="white"/>
</mask>
<g mask="url(#mask4_2618_40364)">
<path fill-rule="evenodd" clip-rule="evenodd" d="M27.1337 23.6222C27.4216 23.8051 27.8803 23.7692 28.1833 23.6355C28.4247 23.5305 28.6536 23.2653 28.3657 23.0819C28.0781 22.8988 27.6197 22.9347 27.3161 23.0673C27.0756 23.1733 26.8467 23.4383 27.1337 23.6222Z" fill="#FFF9E0"/>
</g>
</g>
</svg>
